<svg width="20" height="20" viewBox="0 0 20 20" fill="none" xmlns="http://www.w3.org/2000/svg">
<path d="M15.625 12.0312C15.0661 12.0298 14.5254 12.2295 14.1016 12.5937L12.1016 11.0391C12.2622 10.7163 12.3451 10.3605 12.3438 10C12.3438 9.90625 12.3359 9.8125 12.3281 9.71875L13.5938 9.29687C13.8774 9.78968 14.3306 10.1626 14.8688 10.346C15.407 10.5295 15.9936 10.511 16.5192 10.2941C17.0448 10.0771 17.4737 9.67646 17.7258 9.16678C17.9779 8.65709 18.0361 8.07313 17.8896 7.5237C17.7431 6.97427 17.4018 6.49685 16.9294 6.18038C16.457 5.86391 15.8856 5.72998 15.3218 5.80355C14.7579 5.87712 14.24 6.15317 13.8646 6.58026C13.4892 7.00736 13.2819 7.55637 13.2813 8.125C13.2813 8.21875 13.2891 8.3125 13.2969 8.40625L12.0313 8.82812C11.8254 8.47161 11.5293 8.17559 11.1727 7.96987C10.8161 7.76415 10.4117 7.65598 10 7.65625C9.82918 7.65466 9.65876 7.67301 9.49219 7.71093L8.85938 6.28125C9.31401 5.95603 9.63744 5.47904 9.77132 4.93633C9.9052 4.39362 9.8407 3.82093 9.58946 3.32159C9.33822 2.82225 8.9168 2.42915 8.40121 2.21321C7.88563 1.99726 7.30984 1.9727 6.77774 2.14395C6.24564 2.3152 5.79227 2.67099 5.49942 3.14712C5.20657 3.62324 5.09354 4.18836 5.18071 4.7405C5.26788 5.29264 5.54951 5.79545 5.9748 6.1582C6.40009 6.52095 6.94102 6.71975 7.5 6.71875C7.67082 6.72034 7.84125 6.70198 8.00781 6.66406L8.64063 8.09375C8.33618 8.30972 8.08792 8.59551 7.91665 8.92718C7.74538 9.25884 7.65609 9.62672 7.65625 10C7.65552 10.4123 7.76619 10.8172 7.97656 11.1719L5.78125 13.125C5.37636 12.8192 4.88239 12.6545 4.375 12.6562C3.91145 12.6562 3.45831 12.7937 3.07288 13.0512C2.68746 13.3088 2.38705 13.6748 2.20966 14.1031C2.03227 14.5313 1.98585 15.0026 2.07629 15.4572C2.16672 15.9119 2.38994 16.3295 2.71772 16.6573C3.0455 16.9851 3.46311 17.2083 3.91776 17.2987C4.3724 17.3891 4.84365 17.3427 5.27192 17.1653C5.70018 16.9879 6.06622 16.6875 6.32376 16.3021C6.58129 15.9167 6.71875 15.4635 6.71875 15C6.71948 14.5877 6.60881 14.1828 6.39844 13.8281L8.59375 11.875C9.02001 12.1947 9.54249 12.3597 10.0751 12.3426C10.6076 12.3256 11.1185 12.1276 11.5234 11.7812L13.5234 13.3359C13.3628 13.6587 13.2799 14.0145 13.2813 14.375C13.2813 14.8385 13.4187 15.2917 13.6762 15.6771C13.9338 16.0625 14.2998 16.3629 14.7281 16.5403C15.1564 16.7177 15.6276 16.7641 16.0822 16.6737C16.5369 16.5833 16.9545 16.3601 17.2823 16.0323C17.6101 15.7045 17.8333 15.2869 17.9237 14.8322C18.0142 14.3776 17.9677 13.9063 17.7903 13.4781C17.613 13.0498 17.3125 12.6838 16.9271 12.4262C16.5417 12.1687 16.0886 12.0312 15.625 12.0312ZM15.625 6.71875C15.9031 6.71875 16.175 6.80122 16.4063 6.95574C16.6375 7.11026 16.8178 7.32989 16.9242 7.58685C17.0306 7.84381 17.0585 8.12656 17.0042 8.39934C16.95 8.67213 16.816 8.9227 16.6194 9.11937C16.4227 9.31603 16.1721 9.44997 15.8993 9.50423C15.6266 9.55849 15.3438 9.53064 15.0869 9.4242C14.8299 9.31777 14.6103 9.13752 14.4557 8.90627C14.3012 8.67501 14.2188 8.40313 14.2188 8.125C14.2208 7.75267 14.3696 7.39617 14.6329 7.13289C14.8962 6.86961 15.2527 6.7208 15.625 6.71875ZM6.09375 4.375C6.09375 4.09687 6.17623 3.82498 6.33075 3.59373C6.48527 3.36247 6.70489 3.18223 6.96185 3.07579C7.21881 2.96936 7.50156 2.94151 7.77435 2.99577C8.04713 3.05003 8.2977 3.18396 8.49437 3.38063C8.69104 3.5773 8.82497 3.82787 8.87923 4.10065C8.93349 4.37344 8.90564 4.65619 8.79921 4.91315C8.69277 5.1701 8.51253 5.38973 8.28127 5.54425C8.05002 5.69877 7.77813 5.78125 7.5 5.78125C7.12767 5.7792 6.77118 5.63038 6.5079 5.3671C6.24462 5.10382 6.0958 4.74732 6.09375 4.375ZM4.375 16.4062C4.09687 16.4062 3.82499 16.3238 3.59373 16.1693C3.36247 16.0147 3.18223 15.7951 3.0758 15.5381C2.96936 15.2812 2.94151 14.9984 2.99577 14.7257C3.05003 14.4529 3.18396 14.2023 3.38063 14.0056C3.5773 13.809 3.82787 13.675 4.10066 13.6208C4.37344 13.5665 4.65619 13.5944 4.91315 13.7008C5.17011 13.8072 5.38973 13.9875 5.54426 14.2187C5.69878 14.45 5.78125 14.7219 5.78125 15C5.7792 15.3723 5.63038 15.7288 5.3671 15.9921C5.10382 16.2554 4.74733 16.4042 4.375 16.4062ZM10 11.4062C9.72187 11.4062 9.44999 11.3238 9.21873 11.1693C8.98747 11.0147 8.80723 10.7951 8.7008 10.5381C8.59436 10.2812 8.56651 9.99844 8.62077 9.72565C8.67503 9.45286 8.80896 9.2023 9.00563 9.00563C9.2023 8.80896 9.45287 8.67503 9.72566 8.62077C9.99844 8.56651 10.2812 8.59436 10.5381 8.70079C10.7951 8.80723 11.0147 8.98747 11.1693 9.21873C11.3238 9.44998 11.4063 9.72187 11.4063 10C11.4042 10.3723 11.2554 10.7288 10.9921 10.9921C10.7288 11.2554 10.3723 11.4042 10 11.4062ZM15.625 15.7812C15.3469 15.7812 15.075 15.6988 14.8437 15.5443C14.6125 15.3897 14.4322 15.1701 14.3258 14.9131C14.2194 14.6562 14.1915 14.3734 14.2458 14.1007C14.3 13.8279 14.434 13.5773 14.6306 13.3806C14.8273 13.184 15.0779 13.05 15.3507 12.9958C15.6234 12.9415 15.9062 12.9694 16.1631 13.0758C16.4201 13.1822 16.6397 13.3625 16.7943 13.5937C16.9488 13.825 17.0313 14.0969 17.0313 14.375C17.0292 14.7473 16.8804 15.1038 16.6171 15.3671C16.3538 15.6304 15.9973 15.7792 15.625 15.7812Z" fill="#303FC0"/>
</svg>
