<svg width="17" height="17" viewBox="0 0 17 17" fill="none" xmlns="http://www.w3.org/2000/svg">
<path d="M7.13379 1.21436C7.01302 1.21436 6.8972 1.26233 6.8118 1.34773C6.72641 1.43312 6.67843 1.54894 6.67843 1.66971C6.67843 1.79048 6.72641 1.9063 6.8118 1.9917C6.8972 2.07709 7.01302 2.12507 7.13379 2.12507H8.0445V14.8751H7.13379C7.01302 14.8751 6.8972 14.923 6.8118 15.0084C6.72641 15.0938 6.67843 15.2097 6.67843 15.3304C6.67843 15.4512 6.72641 15.567 6.8118 15.6524C6.8972 15.7378 7.01302 15.7858 7.13379 15.7858H9.86593C9.9867 15.7858 10.1025 15.7378 10.1879 15.6524C10.2733 15.567 10.3213 15.4512 10.3213 15.3304C10.3213 15.2097 10.2733 15.0938 10.1879 15.0084C10.1025 14.923 9.9867 14.8751 9.86593 14.8751H8.95522V2.12507H9.86593C9.9867 2.12507 10.1025 2.07709 10.1879 1.9917C10.2733 1.9063 10.3213 1.79048 10.3213 1.66971C10.3213 1.54894 10.2733 1.43312 10.1879 1.34773C10.1025 1.26233 9.9867 1.21436 9.86593 1.21436H7.13379ZM3.7945 3.65507H7.43736V4.56578H3.7945C3.51271 4.56578 3.24246 4.67773 3.0432 4.87698C2.84395 5.07624 2.732 5.34649 2.732 5.62828V11.3961C2.732 11.9826 3.208 12.4586 3.7945 12.4586H7.43736V13.3694H3.7945C3.27117 13.3694 2.76928 13.1615 2.39923 12.7914C2.02918 12.4214 1.82129 11.9195 1.82129 11.3961V5.62828C1.82129 5.10496 2.02918 4.60306 2.39923 4.23301C2.76928 3.86296 3.27117 3.65507 3.7945 3.65507ZM13.2052 12.4586H9.56236V13.3694H13.2052C13.7285 13.3694 14.2304 13.1615 14.6005 12.7914C14.9705 12.4214 15.1784 11.9195 15.1784 11.3961V5.62828C15.1784 5.10496 14.9705 4.60306 14.6005 4.23301C14.2304 3.86296 13.7285 3.65507 13.2052 3.65507H9.56236V4.56578H13.2052C13.7917 4.56578 14.2677 5.04118 14.2677 5.62828V11.3961C14.2677 11.6779 14.1558 11.9482 13.9565 12.1474C13.7573 12.3467 13.487 12.4586 13.2052 12.4586Z" fill="#909BB3"/>
</svg>
