<svg width="20" height="20" viewBox="0 0 20 20" fill="none" xmlns="http://www.w3.org/2000/svg">
<path d="M19.3202 9.75C19.2968 9.6875 18.6327 8.21875 17.164 6.74219C15.203 4.78906 12.7265 3.75 9.99992 3.75C7.27336 3.75 4.7968 4.78906 2.83586 6.74219C1.36711 8.21875 0.703046 9.6875 0.679609 9.75C0.644728 9.82873 0.626709 9.91389 0.626709 10C0.626709 10.0861 0.644728 10.1713 0.679609 10.25C0.703046 10.3125 1.36711 11.7812 2.83586 13.2578C4.7968 15.2109 7.27336 16.25 9.99992 16.25C12.7265 16.25 15.203 15.2109 17.164 13.2578C18.6327 11.7812 19.2968 10.3125 19.3202 10.25C19.3551 10.1713 19.3731 10.0861 19.3731 10C19.3731 9.91389 19.3551 9.82873 19.3202 9.75ZM9.99992 15C7.59367 15 5.49211 14.125 3.75773 12.3984C3.04096 11.6925 2.43279 10.8843 1.95305 10C2.43214 9.11298 3.04034 8.30205 3.75773 7.59375C5.49211 5.875 7.59367 5 9.99992 5C12.4062 5 14.5077 5.875 16.2421 7.59375C16.9595 8.30205 17.5677 9.11298 18.0468 10C17.4843 11.0547 15.0312 15 9.99992 15ZM9.99992 6.25C9.25824 6.25 8.53322 6.46993 7.91653 6.88199C7.29985 7.29404 6.8192 7.87971 6.53537 8.56494C6.25154 9.25016 6.17728 10.0042 6.32198 10.7316C6.46667 11.459 6.82382 12.1272 7.34827 12.6517C7.87272 13.1761 8.5409 13.5333 9.26833 13.6779C9.99576 13.8226 10.7498 13.7484 11.435 13.4645C12.1202 13.1807 12.7059 12.7001 13.1179 12.0834C13.53 11.4667 13.7499 10.7417 13.7499 10C13.7499 9.00544 13.3548 8.05161 12.6516 7.34835C11.9483 6.64509 10.9945 6.25 9.99992 6.25ZM9.99992 12.5C9.50547 12.5 9.02212 12.3534 8.611 12.0787C8.19987 11.804 7.87944 11.4135 7.69022 10.9567C7.501 10.4999 7.4515 9.99723 7.54796 9.51227C7.64442 9.02732 7.88252 8.58186 8.23215 8.23223C8.58179 7.8826 9.02724 7.6445 9.5122 7.54804C9.99715 7.45157 10.4998 7.50108 10.9566 7.6903C11.4134 7.87952 11.8039 8.19995 12.0786 8.61107C12.3533 9.0222 12.4999 9.50555 12.4999 10C12.4979 10.6624 12.2338 11.2971 11.7654 11.7655C11.297 12.2339 10.6623 12.4979 9.99992 12.5Z" fill="#303FC0"/>
<path style="fill:#303FC0;stroke:#303FC0;fill-opacity:1;stroke-opacity:1;stroke-linecap:round;stroke-width:1.3;stroke-dasharray:none" d="M 18,2 2,18" />
</svg>
