<svg width="16" height="16" viewBox="0 0 16 16" fill="none" xmlns="http://www.w3.org/2000/svg">
<path d="M5.83739 2.83714L6.58531 1.76232C6.77225 1.49366 7.07884 1.3335 7.40613 1.3335H8.26196C8.58804 1.3335 8.89364 1.49248 9.08082 1.75949L9.81981 2.81371M5.83739 2.83714C5.60615 3.16704 5.22179 3.32869 4.81383 3.29987M5.83739 2.83714C5.60503 3.16625 5.22179 3.33003 4.81383 3.29987M4.81383 3.29987L3.48475 3.21643C3.16391 3.19628 2.85294 3.33162 2.64902 3.58015L2.1126 4.23392C1.89639 4.49742 1.82929 4.85289 1.93455 5.17707L2.31547 6.35019M2.31547 6.35019C2.37476 6.54241 2.38234 6.74834 2.33992 6.94283M2.31547 6.35019C2.3756 6.54207 2.3829 6.74759 2.33964 6.94482M2.33992 6.94283C2.29693 7.13502 2.20477 7.31649 2.06794 7.46344M2.33992 6.94283L2.33964 6.94482M2.06794 7.46344L1.19912 8.39788C0.97072 8.64353 0.88069 8.98732 0.959374 9.31339L1.1439 10.0781C1.22233 10.4031 1.45797 10.6674 1.77188 10.7824L2.96563 11.2199C3.15556 11.2934 3.31965 11.4129 3.44383 11.5634M2.06794 7.46344C2.20561 7.3177 2.29693 7.13681 2.33964 6.94482M3.44383 11.5634C3.56718 11.7143 3.65119 11.8965 3.68378 12.0937M3.44383 11.5634C3.5683 11.7143 3.65259 11.896 3.68378 12.0937M3.44383 11.5634L3.44187 11.5612C3.43372 11.5514 3.42501 11.5411 3.41658 11.5315M3.68378 12.0937L3.88717 13.3431C3.94043 13.6703 4.15239 13.9498 4.45306 14.0894L5.22363 14.4472C5.51469 14.5823 5.85293 14.5695 6.13299 14.4129L7.2602 13.7822M7.2602 13.7822C7.43693 13.6829 7.63417 13.6332 7.83141 13.6329M7.2602 13.7822C7.33016 13.7424 7.4035 13.7106 7.47879 13.6868C7.59315 13.6505 7.71228 13.6327 7.83141 13.6329M7.83141 13.6329C7.93396 13.6331 8.03651 13.6467 8.13654 13.6735C8.22954 13.6984 8.32001 13.7347 8.4057 13.7822M7.83141 13.6329C8.02949 13.6327 8.22785 13.6824 8.4057 13.7822M8.4057 13.7822L9.59213 14.4245C9.8734 14.5767 10.2105 14.5853 10.4992 14.4474L11.2664 14.081C11.566 13.9379 11.7751 13.6554 11.8244 13.3271L12.0057 12.1188M12.0057 12.1188C12.0369 11.9205 12.1198 11.7369 12.2429 11.5847M12.0057 12.1188C12.0358 11.92 12.1192 11.7368 12.2429 11.5847M12.2429 11.5847C12.3651 11.434 12.5272 11.314 12.716 11.2397M12.2429 11.5847C12.3648 11.4334 12.5264 11.313 12.716 11.2397M12.716 11.2397L13.9272 10.765C14.2352 10.6443 14.4636 10.3791 14.5372 10.0566L14.716 9.27409C14.7895 8.95247 14.6996 8.6153 14.4757 8.37294L13.5982 7.42281M13.5982 7.42281C13.4589 7.27534 13.3617 7.09919 13.3145 6.91199M13.5982 7.42281C13.5328 7.35393 13.4766 7.27864 13.4308 7.19881C13.3785 7.10816 13.3395 7.01167 13.3145 6.91199M13.3145 6.91199C13.2681 6.72612 13.2709 6.52915 13.3296 6.33851L13.7071 5.12863C13.8075 4.80683 13.739 4.4561 13.5249 4.19572L13.0073 3.56615C12.801 3.31526 12.4857 3.18018 12.1618 3.20391L10.8518 3.29987M10.8518 3.29987C10.6489 3.31419 10.4495 3.27555 10.2719 3.19242M10.8518 3.29987C10.6487 3.31502 10.4495 3.27606 10.2719 3.19242M10.2719 3.19242C10.0932 3.10823 9.93641 2.97876 9.81981 2.81371M10.2719 3.19242C10.0929 3.10854 9.93585 2.97942 9.81981 2.81371M2.33964 6.94482L2.3402 6.94191M10.0907 8.00724C10.0907 9.25054 9.06007 10.2584 7.78898 10.2584C6.51789 10.2584 5.4873 9.25054 5.4873 8.00724C5.4873 6.76394 6.51789 5.75607 7.78898 5.75607C9.06007 5.75607 10.0907 6.76394 10.0907 8.00724Z" stroke="#8158FF"/>
</svg>
