<svg width="110" height="24" viewBox="0 0 110 24" fill="none" xmlns="http://www.w3.org/2000/svg">
<g clip-path="url(#clip0_113_235)">
<path fill-rule="evenodd" clip-rule="evenodd" d="M31.6821 15.4732C31.5543 15.3897 31.4341 15.2969 31.3213 15.1948C30.6769 14.6089 30.3547 13.8063 30.3547 12.7869V4.87782H30.3542V12.7866C30.3542 13.806 30.6764 14.6086 31.3209 15.1944C31.4337 15.2967 31.5542 15.3896 31.6821 15.4732ZM38.7905 4.87782V12.7866C38.7905 14.2161 38.3453 15.3351 37.4548 16.1435C36.5643 16.952 35.3691 17.3563 33.8693 17.3563C32.651 17.3563 31.6337 17.0895 30.8174 16.556C31.6338 17.0897 32.6512 17.3566 33.8698 17.3566C35.3696 17.3566 36.5648 16.9523 37.4553 16.1438C38.3458 15.3354 38.791 14.2164 38.791 12.7869V4.87782H38.7905ZM30.6993 12.7869C30.6993 13.7273 30.9929 14.4304 31.5531 14.9397C32.0942 15.4295 32.8523 15.6938 33.8698 15.6938C34.8872 15.6938 35.6454 15.4295 36.1865 14.9397C36.7467 14.4305 37.0403 13.7273 37.0403 12.7869V4.5332H39.1356V12.7869C39.1356 14.2936 38.6629 15.5129 37.6869 16.399C36.7184 17.2783 35.4332 17.7012 33.8698 17.7012C32.3064 17.7012 31.0213 17.2783 30.0527 16.399C29.0767 15.5129 28.604 14.2936 28.604 12.7869V4.5332H30.6993V12.7869ZM42.6652 11.2839V8.39296H42.6647V11.2868C42.6649 11.2858 42.6651 11.2849 42.6652 11.2839ZM46.1799 8.21721V9.53507C45.1019 9.53507 44.2524 9.80457 43.6314 10.3436C42.987 10.8825 42.6647 11.6383 42.6647 12.6108V17.1805H41.2592V17.1808H42.6652V12.6111C42.6652 12.5517 42.6664 12.4932 42.6688 12.4354L42.671 12.3885C42.697 11.9008 42.81 11.4716 43.0098 11.1009C43.0316 11.0606 43.0544 11.0209 43.0782 10.982C43.2241 10.7433 43.4087 10.5306 43.6319 10.3439C44.2529 9.80488 45.1024 9.53538 46.1804 9.53538V8.21721C46.1802 8.21721 46.18 8.21721 46.1799 8.21721ZM43.0098 17.5254V12.6111C43.0098 11.7227 43.2996 11.071 43.853 10.6082L43.8554 10.6062L43.8578 10.6041C44.3988 10.1346 45.1591 9.88001 46.1804 9.88001H46.525V7.87259H46.1804C44.927 7.87259 43.919 8.28423 43.2086 9.13939L43.2058 9.14279C43.1367 9.22823 43.0714 9.31684 43.0098 9.40859V8.04834H40.9145V17.5254H43.0098ZM50.1369 15.142C49.9187 14.9237 49.741 14.6778 49.6041 14.4042C49.5973 14.3906 49.5906 14.377 49.584 14.3634L49.5835 14.3623C49.3666 13.9109 49.2582 13.3858 49.2582 12.7869C49.2582 12.1907 49.3656 11.6655 49.5806 11.2112L49.5812 11.2098C49.5898 11.1918 49.5985 11.1738 49.6074 11.156C49.7439 10.8823 49.9204 10.635 50.1369 10.4142C50.7345 9.82831 51.5254 9.53538 52.5097 9.53538C53.2478 9.53538 53.8773 9.70016 54.398 10.0297C53.8772 9.69995 53.2476 9.53507 52.5092 9.53507C51.5249 9.53507 50.734 9.828 50.1365 10.4139C49.5506 11.0114 49.2577 11.8023 49.2577 12.7866C49.2577 13.7708 49.5506 14.5559 50.1365 15.1417C50.2651 15.2703 50.4026 15.3851 50.5491 15.486C50.4028 15.3851 50.2654 15.2705 50.1369 15.142ZM49.2582 11.1324V4.87782H49.2577V11.1345C49.2578 11.1338 49.258 11.1331 49.2582 11.1324ZM55.3069 8.85821C55.5662 9.02705 55.8054 9.22924 56.0243 9.46477C56.7859 10.2967 57.1667 11.404 57.1667 12.7866C57.1667 14.1692 56.7859 15.2765 56.0243 16.1084C55.251 16.9403 54.2257 17.3563 52.9486 17.3563C52.1323 17.3563 51.4378 17.18 50.8649 16.8273C51.4379 17.1802 52.1326 17.3566 52.9491 17.3566C54.2262 17.3566 55.2515 16.9406 56.0248 16.1087C56.7864 15.2768 57.1672 14.1695 57.1672 12.7869C57.1672 11.4043 56.7864 10.297 56.0248 9.46508C55.8057 9.22941 55.5664 9.02712 55.3069 8.85821ZM49.2582 14.4408V17.1808H47.8521V17.1805H49.2577V14.4387C49.2578 14.4394 49.258 14.4401 49.2582 14.4408ZM49.6028 17.5254V16.09C49.6597 16.1714 49.7196 16.2504 49.7824 16.327C50.5388 17.2527 51.6113 17.7012 52.9491 17.7012C54.3088 17.7012 55.4302 17.2545 56.2772 16.3433L56.279 16.3414C57.1112 15.4323 57.5118 14.2352 57.5118 12.7869C57.5118 11.3385 57.1112 10.1414 56.279 9.23237L56.2772 9.23045C55.4302 8.3193 54.3088 7.87259 52.9491 7.87259C51.6113 7.87259 50.5388 8.32109 49.7824 9.24677C49.7196 9.32337 49.6597 9.40237 49.6028 9.48373V4.5332H47.5075V17.5254H49.6028ZM49.6028 12.7869C49.6028 11.8772 49.8705 11.1795 50.3806 10.6579C50.9023 10.1477 51.6 9.88001 52.5097 9.88001C53.4193 9.88001 54.117 10.1477 54.6387 10.6579C55.1488 11.1795 55.4165 11.8772 55.4165 12.7869C55.4165 13.6982 55.148 14.3891 54.6387 14.8983C54.1164 15.4206 53.4188 15.6938 52.5097 15.6938C51.6006 15.6938 50.9029 15.4206 50.3806 14.8983C49.8714 14.3891 49.6028 13.6982 49.6028 12.7869ZM60.9329 8.04834H58.8376V17.5254H60.9329V8.04834ZM60.5878 8.39296H60.5883V17.1808H59.1823V17.1805H60.5878V8.39296ZM64.8827 9.48686V8.04834H62.7874V21.0406H64.8827V16.0869C64.9392 16.1688 64.9986 16.2483 65.061 16.3254L65.062 16.3267C65.8184 17.2526 66.891 17.7012 68.2289 17.7012C69.5887 17.7012 70.7101 17.2545 71.5571 16.3433L71.5589 16.3414C72.3911 15.4323 72.7917 14.2352 72.7917 12.7869C72.7917 11.3385 72.3911 10.1414 71.5589 9.23237L71.5571 9.23045C70.7101 8.3193 69.5887 7.87259 68.2289 7.87259C66.891 7.87259 65.8184 8.32118 65.062 9.24706L65.061 9.24836C64.9986 9.32543 64.9392 9.40495 64.8827 9.48686ZM66.1937 16.8569C66.7571 17.19 67.4355 17.3566 68.2289 17.3566C69.5061 17.3566 70.5313 16.9406 71.3047 16.1087C72.0663 15.2768 72.4471 14.1695 72.4471 12.7869C72.4471 11.4043 72.0663 10.297 71.3047 9.46508C71.0856 9.22941 70.8463 9.02712 70.5868 8.85821C70.8461 9.02705 71.0853 9.22924 71.3042 9.46477C72.0658 10.2967 72.4466 11.404 72.4466 12.7866C72.4466 14.1692 72.0658 15.2765 71.3042 16.1084C70.5309 16.9403 69.5056 17.3563 68.2284 17.3563C67.4353 17.3563 66.757 17.1898 66.1937 16.8569ZM64.538 11.1403C64.5379 11.141 64.5377 11.1417 64.5375 11.1423V8.39296H64.538V11.1403ZM64.538 14.4329C64.5379 14.4322 64.5377 14.4315 64.5375 14.4308V20.6956H63.132V20.696H64.538V14.4329ZM64.538 12.7869C64.538 12.1705 64.6529 11.63 64.8827 11.1653L64.892 11.1466C65.0278 10.8767 65.2028 10.6325 65.4168 10.4142C66.0144 9.82831 66.8053 9.53538 67.7895 9.53538C68.5277 9.53538 69.1571 9.70016 69.6778 10.0297C69.157 9.69995 68.5275 9.53507 67.7891 9.53507C66.8048 9.53507 66.0139 9.828 65.4163 10.4139C64.8305 11.0114 64.5375 11.8023 64.5375 12.7866C64.5375 13.7708 64.8305 14.5559 65.4163 15.1417C65.5297 15.2551 65.6501 15.3577 65.7774 15.4496C65.6503 15.3578 65.5301 15.2553 65.4168 15.142C65.2009 14.9261 65.0247 14.6831 64.8884 14.413L64.8827 14.4016C64.6529 13.9415 64.538 13.4032 64.538 12.7869ZM65.6605 14.8983C65.1512 14.3891 64.8827 13.6982 64.8827 12.7869C64.8827 11.8772 65.1504 11.1795 65.6605 10.6579C66.1822 10.1477 66.8799 9.88001 67.7895 9.88001C68.6992 9.88001 69.3969 10.1477 69.9186 10.6579C70.4287 11.1795 70.6964 11.8772 70.6964 12.7869C70.6964 13.6982 70.4278 14.3891 69.9186 14.8983C69.3963 15.4206 68.6986 15.6938 67.7895 15.6938C66.8804 15.6938 66.1828 15.4206 65.6605 14.8983ZM80.5363 10.5054L80.5369 10.5059C80.9316 10.8266 81.2083 11.2448 81.3619 11.7744H75.8229C75.9765 11.2448 76.2532 10.8266 76.6479 10.5059L76.6485 10.5054C77.151 10.0952 77.7906 9.88001 78.5924 9.88001C79.3942 9.88001 80.0338 10.0952 80.5363 10.5054ZM75.3937 12.1187C75.4129 12.0002 75.4368 11.8854 75.4656 11.7744C75.6303 11.1393 75.9519 10.6273 76.4306 10.2384C77.0047 9.76973 77.7253 9.53538 78.5924 9.53538C79.2787 9.53538 79.8733 9.68221 80.3761 9.97587C79.8732 9.68202 79.2785 9.53507 78.5919 9.53507C77.7249 9.53507 77.0043 9.76941 76.4301 10.2381C75.8677 10.6951 75.522 11.3219 75.3931 12.1187H75.3937ZM74.96 9.21803L74.9583 9.2197C74.038 10.1272 73.5902 11.3287 73.5902 12.7869C73.5902 14.2451 74.038 15.4466 74.9583 16.3541L74.96 16.3557C75.891 17.2612 77.1138 17.7012 78.5924 17.7012C79.6895 17.7012 80.6575 17.4479 81.4823 16.9278C82.2965 16.4188 82.883 15.7033 83.2372 14.7924L83.4198 14.3229H81.1437L81.0424 14.4842C80.5424 15.2801 79.7501 15.6938 78.5924 15.6938C77.7906 15.6938 77.151 15.4786 76.6485 15.0684L76.6479 15.0679C76.2524 14.7465 75.9747 14.3229 75.8212 13.7818H83.5057L83.576 13.1489L83.5946 12.796V12.7869C83.5946 11.3287 83.1468 10.1272 82.2265 9.21969L82.2248 9.21804C81.2938 8.31253 80.071 7.87259 78.5924 7.87259C77.1138 7.87259 75.891 8.31253 74.96 9.21803ZM78.5924 17.3566C79.6352 17.3566 80.5375 17.1164 81.2991 16.636C81.9436 16.2332 82.4323 15.6919 82.7652 15.0121C82.8196 14.9009 82.8699 14.7861 82.916 14.6675H82.9154C82.5873 15.511 82.0484 16.167 81.2986 16.6357C80.537 17.1161 79.6348 17.3563 78.5919 17.3563C77.5376 17.3563 76.6381 17.1224 75.8934 16.6546C76.6382 17.1226 77.5379 17.3566 78.5924 17.3566ZM81.4743 9.041C81.6539 9.16765 81.8238 9.30892 81.984 9.46477C82.8277 10.2967 83.2495 11.404 83.2495 12.7866L83.2319 13.1205L83.1968 13.4369H75.3931C75.522 14.2454 75.8677 14.8781 76.4301 15.3351C76.5143 15.4038 76.6016 15.4674 76.6921 15.5261C76.6018 15.4675 76.5146 15.404 76.4306 15.3354C75.9507 14.9455 75.6287 14.4276 75.4644 13.7818C75.4361 13.6707 75.4125 13.5558 75.3936 13.4372H83.1972L83.2324 13.1208L83.25 12.7869C83.25 11.4043 82.8282 10.297 81.9845 9.46508C81.8241 9.3091 81.6541 9.16774 81.4743 9.041ZM87.4058 15.4692C87.2683 15.3724 87.1388 15.2632 87.0173 15.1417C86.4314 14.5559 86.1385 13.7708 86.1385 12.7866C86.1385 11.8023 86.4314 11.0114 87.0173 10.4139C87.6148 9.828 88.4058 9.53507 89.39 9.53507C90.1284 9.53507 90.758 9.69995 91.2788 10.0297C90.7581 9.70016 90.1287 9.53538 89.3905 9.53538C88.4062 9.53538 87.6153 9.82831 87.0178 10.4142C86.4319 11.0117 86.139 11.8026 86.139 12.7869C86.139 13.7711 86.4319 14.5562 87.0178 15.142C87.1391 15.2634 87.2685 15.3725 87.4058 15.4692ZM91.0942 8.78364C91.3769 8.96646 91.629 9.1935 91.8506 9.46477C92.2255 9.92174 92.4892 10.4783 92.6415 11.1345V11.1327C92.634 11.1005 92.6263 11.0685 92.6182 11.0368C92.5381 10.7199 92.4311 10.427 92.2974 10.158C92.1721 9.90597 92.0233 9.67502 91.8511 9.46508C91.6293 9.19366 91.3771 8.96651 91.0942 8.78364ZM94.0476 4.87782V17.1805H92.642V17.1808H94.048V4.87782H94.0476ZM92.6415 14.4411V14.4387C92.4892 15.0948 92.2255 15.6514 91.8506 16.1084C91.171 16.9403 90.2043 17.3563 88.9506 17.3563C88.1106 17.3563 87.3796 17.1764 86.7576 16.8165C87.3797 17.1766 88.1109 17.3566 88.9511 17.3566C90.2048 17.3566 91.1715 16.9406 91.8511 16.1087C92.0233 15.8988 92.1721 15.6678 92.2974 15.4158C92.433 15.1429 92.5411 14.8454 92.6217 14.5231C92.6285 14.496 92.6351 14.4686 92.6415 14.4411ZM88.9511 17.7012C90.2887 17.7012 91.3612 17.2528 92.1175 16.3273C92.1804 16.2506 92.2404 16.1715 92.2974 16.09V17.5254H94.3927V4.5332H92.2974V9.48373C92.2405 9.40247 92.1807 9.32357 92.118 9.24706C91.3616 8.32118 90.289 7.87259 88.9511 7.87259C87.5913 7.87259 86.4699 8.3193 85.6229 9.23044L85.6211 9.23237C84.7889 10.1414 84.3883 11.3385 84.3883 12.7869C84.3883 14.2352 84.7889 15.4323 85.6211 16.3414L85.6229 16.3433C86.4699 17.2545 87.5913 17.7012 88.9511 17.7012ZM92.2974 12.7869C92.2974 11.8772 92.0296 11.1795 91.5194 10.6578C90.9978 10.1477 90.3001 9.88001 89.3905 9.88001C88.4808 9.88001 87.7832 10.1477 87.2615 10.6578C86.7513 11.1795 86.4836 11.8772 86.4836 12.7869C86.4836 13.6982 86.7522 14.3891 87.2614 14.8983C87.7837 15.4206 88.4814 15.6938 89.3905 15.6938C90.2996 15.6938 90.9972 15.4206 91.5195 14.8983C92.0288 14.3891 92.2974 13.6982 92.2974 12.7869ZM98.341 8.04834H96.2457V17.5254H98.341V8.04834ZM97.9959 8.39296H97.9964V17.1808H96.5903V17.1805H97.9959V8.39296ZM102.561 15.3764C102.469 15.3041 102.381 15.2259 102.297 15.1417C101.711 14.5559 101.418 13.7708 101.418 12.7866C101.418 11.8023 101.711 11.0114 102.297 10.4139C102.895 9.828 103.686 9.53507 104.67 9.53507C105.408 9.53507 106.038 9.69995 106.559 10.0297C106.038 9.70016 105.409 9.53538 104.67 9.53538C103.686 9.53538 102.895 9.82831 102.298 10.4142C101.712 11.0117 101.419 11.8026 101.419 12.7869C101.419 13.7711 101.712 14.5562 102.298 15.142C102.382 15.2261 102.47 15.3042 102.561 15.3764ZM106.567 8.91914C106.773 9.07504 106.961 9.25694 107.13 9.46477C107.505 9.92174 107.769 10.4783 107.921 11.1345V11.1327C107.917 11.1135 107.912 11.0943 107.908 11.0753C107.905 11.0624 107.901 11.0496 107.898 11.0368C107.818 10.7199 107.711 10.427 107.577 10.158C107.452 9.90597 107.303 9.67502 107.131 9.46508C106.961 9.2571 106.773 9.07512 106.567 8.91914ZM109.327 8.39296V17.1805H107.922V17.1808H109.328V8.39296H109.327ZM107.921 14.4411V14.4387C107.769 15.0948 107.505 15.6514 107.13 16.1084C106.451 16.9403 105.484 17.3563 104.23 17.3563C103.457 17.3563 102.777 17.2039 102.188 16.8991C102.777 17.2041 103.458 17.3566 104.231 17.3566C105.485 17.3566 106.451 16.9406 107.131 16.1087C107.303 15.8988 107.452 15.6678 107.577 15.4158C107.713 15.1429 107.821 14.8454 107.902 14.5231C107.908 14.496 107.915 14.4686 107.921 14.4411ZM104.231 17.7012C105.569 17.7012 106.641 17.2528 107.397 16.3273C107.46 16.2506 107.52 16.1715 107.577 16.09V17.5254H109.673V8.04834H107.577V9.48373C107.52 9.40247 107.461 9.32357 107.398 9.24706C106.641 8.32118 105.569 7.87259 104.231 7.87259C102.871 7.87259 101.75 8.3193 100.903 9.23044L100.901 9.23237C100.069 10.1414 99.6682 11.3385 99.6682 12.7869C99.6682 14.2352 100.069 15.4323 100.901 16.3414L100.903 16.3433C101.75 17.2545 102.871 17.7012 104.231 17.7012ZM107.577 12.7869C107.577 11.8772 107.309 11.1795 106.799 10.6578C106.278 10.1477 105.58 9.88001 104.67 9.88001C103.761 9.88001 103.063 10.1477 102.541 10.6578C102.031 11.1795 101.763 11.8772 101.763 12.7869C101.763 13.6982 102.032 14.3891 102.541 14.8983C103.064 15.4206 103.761 15.6938 104.67 15.6938C105.579 15.6938 106.277 15.4206 106.799 14.8983C107.309 14.3891 107.577 13.6982 107.577 12.7869Z" fill="white"/>
<path d="M14.4014 14.3957L14.6509 14.1404L14.3985 13.888L12.7878 12.2772L12.5304 12.0199L12.2751 12.2793C12.0885 12.4688 11.8656 12.6187 11.6196 12.7198C11.3737 12.8209 11.1098 12.8713 10.8439 12.8678L10.8392 13.2289L10.8439 12.8678C10.578 12.8644 10.3155 12.8072 10.0723 12.6996C9.82908 12.5921 9.61011 12.4365 9.42857 12.2422L9.42872 12.2421L9.42004 12.2334L9.40861 12.2219L9.39719 12.2105L9.38577 12.1991L9.37434 12.1877L9.36292 12.1762L9.35149 12.1648L9.34007 12.1534L9.32864 12.142L9.31721 12.1305L9.30579 12.1191L9.29436 12.1077L9.28293 12.0963L9.2715 12.0848L9.26007 12.0734L9.24865 12.062L9.23722 12.0505L9.22579 12.0391L9.21436 12.0277L9.20293 12.0163L9.19149 12.0048L9.18006 11.9934L9.16863 11.982L9.1572 11.9705L9.14577 11.9591L9.13433 11.9477L9.1229 11.9362L9.11146 11.9248L9.10003 11.9134L9.08859 11.9019L9.07716 11.8905L9.06572 11.8791L9.05429 11.8676L9.04285 11.8562L9.03141 11.8447L9.01998 11.8333L9.00854 11.8219L8.9971 11.8104L8.98566 11.799L8.97422 11.7876L8.96278 11.7761L8.95134 11.7647L8.9399 11.7532L8.92846 11.7418L8.91702 11.7304L8.90558 11.7189L8.89414 11.7075L8.8827 11.696L8.87126 11.6846L8.85981 11.6731L8.84837 11.6617L8.83693 11.6503L8.82548 11.6388L8.81404 11.6274L8.80259 11.6159L8.79115 11.6045L8.7797 11.593L8.76826 11.5816L8.75681 11.5701L8.74536 11.5587L8.73392 11.5472L8.72247 11.5358L8.71102 11.5244L8.69957 11.5129L8.68813 11.5015L8.67668 11.49L8.66523 11.4786L8.65378 11.4671L8.64233 11.4557L8.63088 11.4442L8.61943 11.4328L8.60798 11.4213L8.59653 11.4099L8.58507 11.3984L8.57362 11.387L8.56217 11.3755L8.55072 11.364L8.53926 11.3526L8.52781 11.3411L8.51636 11.3297L8.5049 11.3182L8.49345 11.3068L8.48199 11.2953L8.47054 11.2839L8.45908 11.2724L8.44763 11.261L8.43617 11.2495L8.42472 11.238L8.41326 11.2266L8.4018 11.2151L8.39034 11.2037L8.37889 11.1922L8.36743 11.1808L8.35597 11.1693L8.34451 11.1578L8.33305 11.1464L8.32159 11.1349L8.31013 11.1235L8.29867 11.112L8.28721 11.1005L8.27575 11.0891L8.26429 11.0776L8.25283 11.0662L8.24137 11.0547L8.22991 11.0432L8.21844 11.0318L8.20698 11.0203L8.19552 11.0088L8.18406 10.9974L8.17259 10.9859L8.16113 10.9745L8.14967 10.963L8.1382 10.9515L8.12674 10.9401L8.11527 10.9286L8.10381 10.9171L8.09234 10.9057L8.08087 10.8942L8.06941 10.8827L8.05794 10.8713L8.04648 10.8598L8.03501 10.8483L8.02354 10.8369L8.01207 10.8254L8.00061 10.8139L7.98914 10.8025L7.97767 10.791L7.9662 10.7795L7.95473 10.7681L7.94326 10.7566L7.93179 10.7451L7.92032 10.7337L7.90885 10.7222L7.89738 10.7107L7.88591 10.6992L7.87444 10.6878L7.86297 10.6763L7.8515 10.6648L7.84003 10.6534L7.82856 10.6419L7.81708 10.6304L7.80561 10.6189L7.79414 10.6075L7.78267 10.596L7.77119 10.5845L7.75972 10.573L7.74824 10.5616L7.73677 10.5501L7.7253 10.5386L7.71382 10.5272L7.70235 10.5157L7.69087 10.5042L7.6794 10.4927L7.66792 10.4812L7.65645 10.4698L7.64497 10.4583L7.63349 10.4468L7.62202 10.4353L7.61054 10.4239L7.59906 10.4124L7.58759 10.4009L7.57611 10.3894L7.56463 10.378L7.55315 10.3665L7.54167 10.355L7.5302 10.3435L7.51872 10.332L7.50724 10.3206L7.49576 10.3091L7.48428 10.2976L7.4728 10.2861L7.46132 10.2746L7.44984 10.2632L7.43836 10.2517L7.42688 10.2402L7.4154 10.2287L7.40392 10.2172L7.39244 10.2058L7.38096 10.1943L7.36947 10.1828L7.35799 10.1713L7.34651 10.1598L7.33503 10.1484L7.32355 10.1369L7.31206 10.1254L7.30058 10.1139L7.2891 10.1024L7.27761 10.0909L7.26613 10.0795L7.25465 10.068L7.24316 10.0565L7.23168 10.045L7.2202 10.0335L7.20871 10.022L7.19723 10.0106L7.18574 9.99907L7.17426 9.98759L7.16277 9.9761L7.15129 9.96462L7.1398 9.95313L7.12832 9.94164L7.11683 9.93016L7.10534 9.91867L7.09386 9.90719L7.08237 9.8957L7.07088 9.88421L7.0594 9.87273L7.04791 9.86124L7.03642 9.84975L7.02494 9.83826L7.01345 9.82678L7.00196 9.81529L6.99047 9.8038L6.97899 9.79231L6.9675 9.78083L6.95601 9.76934L6.94452 9.75785L6.93303 9.74636L6.92154 9.73487L6.91005 9.72338L6.89856 9.71189L6.88708 9.7004L6.87559 9.68891L6.8641 9.67742L6.85261 9.66594L6.84112 9.65444L6.82963 9.64296L6.81814 9.63146L6.80665 9.61997L6.79516 9.60848L6.78366 9.59699L6.77217 9.5855L6.76068 9.57401L6.74919 9.56252L6.7377 9.55103L6.72621 9.53954L6.71472 9.52805L6.70323 9.51655L6.69173 9.50506L6.68024 9.49357L6.66875 9.48208L6.65726 9.47059L6.64577 9.45909L6.63427 9.4476L6.62278 9.43611L6.61129 9.42462L6.59979 9.41312L6.5883 9.40163L6.57681 9.39014L6.56532 9.37864L6.55382 9.36715L6.54233 9.35566L6.53084 9.34416L6.51934 9.33267L6.50785 9.32118L6.49635 9.30968L6.48486 9.29819L6.47337 9.28669L6.46187 9.2752L6.45038 9.26371L6.43888 9.25221L6.42739 9.24072L6.41589 9.22922L6.4044 9.21773L6.3929 9.20623L6.38141 9.19474L6.36991 9.18324L6.35842 9.17175L6.34692 9.16025L6.33543 9.14876L6.32393 9.13726L6.31244 9.12577L6.30094 9.11427L6.28945 9.10277L6.27795 9.09128L6.26645 9.07978L6.25496 9.06829L6.24346 9.05679L6.23197 9.04529L6.22047 9.0338L6.20897 9.0223L6.19748 9.0108L6.18598 8.99931L6.17448 8.98781L6.16299 8.97632L6.15149 8.96482L6.13999 8.95332L6.1285 8.94182L6.117 8.93033L6.1055 8.91883L6.09401 8.90733L6.08251 8.89584L6.07101 8.88434L6.05951 8.87284L6.04802 8.86134L6.03652 8.84985L6.02502 8.83835L6.01352 8.82685L6.00203 8.81535L5.99053 8.80386L5.97903 8.79236L5.96753 8.78086L5.95604 8.76936L5.94454 8.75787L5.93304 8.74637L5.92154 8.73487L5.91004 8.72337L5.89855 8.71187L5.88705 8.70038L5.87555 8.68888L5.86405 8.67738L5.85255 8.66588L5.84105 8.65438L5.82956 8.64288L5.81806 8.63139L5.80656 8.61989L5.79506 8.60839L5.78356 8.59689L5.77206 8.58539L5.76057 8.57389L5.74907 8.5624L5.73757 8.5509L5.72607 8.5394L5.71457 8.5279L5.70307 8.5164L5.69157 8.5049L5.68008 8.4934L5.66858 8.48191L5.65708 8.47041L5.64558 8.45891L5.63408 8.44741L5.62258 8.43591L5.61108 8.42441L5.59958 8.41291L5.58809 8.40141L5.57659 8.38992L5.56509 8.37842L5.55359 8.36692L5.54209 8.35542L5.53059 8.34392L5.51909 8.33242L5.50759 8.32092L5.49609 8.30942L5.4846 8.29792L5.4731 8.28643L5.4616 8.27493L5.4501 8.26343L5.4386 8.25193L5.4271 8.24043L5.4156 8.22893L5.4041 8.21743L5.39261 8.20593L5.38111 8.19444L5.36961 8.18294L5.35811 8.17144L5.34661 8.15994L5.33511 8.14844L5.32361 8.13694L5.31211 8.12544L5.30062 8.11394L5.28912 8.10245L5.27762 8.09095L5.26612 8.07945L5.25462 8.06795L5.24312 8.05645L5.23162 8.04495L5.22013 8.03345L5.20863 8.02196L5.19713 8.01046L5.18563 7.99896L5.17413 7.98746L5.16263 7.97596L5.15114 7.96446L5.13964 7.95297L5.12814 7.94147L5.11664 7.92997L5.10514 7.91847L5.09364 7.90697L5.08215 7.89548L5.07065 7.88398L5.05915 7.87248L5.04765 7.86098L5.03616 7.84948L5.02466 7.83799L5.01316 7.82649L5.00166 7.81499L4.99016 7.80349L4.97867 7.792L4.96717 7.7805L4.95567 7.769L4.94418 7.7575L4.93268 7.74601L4.92118 7.73451L4.90968 7.72301L4.89819 7.71152L4.88669 7.70002L4.87519 7.68852L4.8637 7.67702L4.8522 7.66553L4.8407 7.65403L4.82921 7.64253L4.81771 7.63104L4.80621 7.61954L4.79472 7.60804L4.78322 7.59655L4.77172 7.58505L4.76023 7.57356L4.74873 7.56206L4.73724 7.55056L4.72574 7.53907L4.71424 7.52757L4.70275 7.51608L4.69125 7.50458L4.67976 7.49309L4.66826 7.48159L4.65677 7.47009L4.64527 7.4586L4.63378 7.4471L4.62228 7.43561L4.61079 7.42411L4.59929 7.41262L4.5878 7.40112L4.5763 7.38963L4.56481 7.37814L4.55331 7.36664L4.54182 7.35515L4.53032 7.34365L4.51883 7.33216L4.50734 7.32066L4.49584 7.30917L4.48435 7.29768L4.47285 7.28618L4.46136 7.27469L4.44987 7.2632L4.43837 7.2517L4.42688 7.24021L4.41539 7.22872L4.4039 7.21722L4.3924 7.20573L4.38091 7.19424L4.36942 7.18275L4.35792 7.17125L4.34643 7.15976L4.33494 7.14827L4.32345 7.13678L4.31196 7.12528L4.30046 7.11379L4.28897 7.1023L4.27748 7.09081L4.26599 7.07932L4.2545 7.06783L4.24301 7.05634L4.23152 7.04485L4.22003 7.03335L4.20854 7.02186L4.19705 7.01037L4.18555 6.99888L4.17406 6.98739L4.16257 6.9759L4.15108 6.96441L4.13959 6.95292L4.12811 6.94143L4.11662 6.92994L4.10513 6.91846L4.09364 6.90697L4.08215 6.89548L4.07066 6.88399L4.05917 6.8725L4.04768 6.86101L4.03619 6.84952L4.02471 6.83804L4.01322 6.82655L4.00173 6.81506L3.99024 6.80357L3.97876 6.79208L3.96727 6.7806L3.95578 6.76911L3.94429 6.75762L3.93281 6.74614L3.92132 6.73465L3.90983 6.72316L3.89835 6.71168L3.88686 6.70019L3.87538 6.68871L3.86389 6.67722L3.85241 6.66573L3.84092 6.65425L3.82944 6.64276L3.81795 6.63128L3.80647 6.61979L3.79498 6.60831L3.7835 6.59683L3.77201 6.58534L3.76053 6.57386L3.74905 6.56237L3.73756 6.55089L3.72608 6.53941L3.7146 6.52792L3.70311 6.51644L3.69163 6.50496L3.68015 6.49348L3.66867 6.48199L3.65718 6.47051L3.6457 6.45903L3.63422 6.44755L3.62274 6.43607L3.61126 6.42459L3.59978 6.4131L3.58829 6.40162L3.57681 6.39014L3.56533 6.37866L3.55385 6.36718L3.54237 6.3557L3.05501 5.86833L2.65923 5.47256L2.46181 5.9963C2.34602 6.30347 2.22595 6.60231 2.10831 6.89513C1.9387 7.31727 1.77413 7.72687 1.63471 8.13076L1.62074 8.17123L1.61662 8.21384C1.61671 8.21298 1.61649 8.21385 1.61587 8.21639C1.61408 8.22369 1.60891 8.24475 1.59761 8.27867C1.59162 8.29664 1.58571 8.31294 1.5813 8.32473L1.57629 8.33788L1.57516 8.34076C1.57508 8.34094 1.57504 8.34106 1.57502 8.34111C1.57501 8.34113 1.57501 8.34113 1.57501 8.34114L1.57501 8.34114L1.4853 8.56486L1.65807 8.73352L1.9103 8.47514L1.65808 8.73352L1.65808 8.73353L1.6581 8.73355L1.65819 8.73364L1.65855 8.73399L1.65998 8.73538L1.66546 8.74073L1.68547 8.76028L1.75022 8.82356C1.79983 8.87208 1.85582 8.92691 1.88474 8.95549C2.48659 9.55734 3.08713 10.1627 3.68826 10.7687C4.89231 11.9825 6.09875 13.1987 7.32295 14.3937C7.78286 14.8647 8.33213 15.2392 8.93862 15.4953C9.54652 15.7519 10.1996 15.8844 10.8595 15.8849C11.5193 15.8854 12.1726 15.7539 12.7809 15.4981C13.3891 15.2424 13.9401 14.8676 14.4014 14.3957Z" fill="white" stroke="white" stroke-width="0.722166"/>
<path d="M16.0766 15.5656L15.8207 15.3121L15.5665 15.5674C14.3405 16.7987 12.6799 17.4994 10.9423 17.5184C9.20517 17.5374 7.53001 16.8736 6.27739 15.6699C5.39772 14.8128 4.535 13.9426 3.6697 13.0697C3.23567 12.6319 2.80098 12.1934 2.36319 11.7556L1.87582 11.2682L1.304 10.6964L1.25995 11.5039C1.20298 12.5483 1.28853 13.6433 1.83117 14.7286C2.33192 15.7301 2.79573 16.3974 3.38934 17.0436L3.39452 17.0492L3.39994 17.0546L3.40007 17.0548L3.4002 17.0549L3.40034 17.055L3.40048 17.0552L3.40062 17.0553L3.40077 17.0555L3.40092 17.0556L3.40107 17.0558L3.40123 17.0559L3.40139 17.0561L3.40155 17.0562L3.40172 17.0564L3.40189 17.0566L3.40206 17.0568L3.40223 17.0569L3.40241 17.0571L3.4026 17.0573L3.40278 17.0575L3.40297 17.0577L3.40316 17.0579L3.40335 17.058L3.40355 17.0582L3.40375 17.0584L3.40396 17.0586L3.40416 17.0589L3.40437 17.0591L3.40459 17.0593L3.4048 17.0595L3.40502 17.0597L3.40524 17.0599L3.40547 17.0602L3.40569 17.0604L3.40592 17.0606L3.40616 17.0608L3.40639 17.0611L3.40663 17.0613L3.40687 17.0616L3.40712 17.0618L3.40737 17.0621L3.40762 17.0623L3.40787 17.0626L3.40813 17.0628L3.40839 17.0631L3.40865 17.0633L3.40891 17.0636L3.40918 17.0639L3.40945 17.0641L3.40972 17.0644L3.41 17.0647L3.41028 17.065L3.41056 17.0653L3.41084 17.0655L3.41113 17.0658L3.41142 17.0661L3.41171 17.0664L3.41201 17.0667L3.4123 17.067L3.4126 17.0673L3.4129 17.0676L3.41321 17.0679L3.41352 17.0682L3.41383 17.0685L3.41414 17.0688L3.41445 17.0691L3.41477 17.0695L3.41509 17.0698L3.41541 17.0701L3.41574 17.0704L3.41607 17.0708L3.4164 17.0711L3.41673 17.0714L3.41706 17.0718L3.4174 17.0721L3.41774 17.0724L3.41808 17.0728L3.41843 17.0731L3.41878 17.0735L3.41912 17.0738L3.41948 17.0742L3.41983 17.0745L3.42019 17.0749L3.42055 17.0752L3.42091 17.0756L3.42127 17.076L3.42163 17.0763L3.422 17.0767L3.42237 17.0771L3.42274 17.0774L3.42312 17.0778L3.42349 17.0782L3.42387 17.0786L3.42425 17.0789L3.42464 17.0793L3.42502 17.0797L3.42541 17.0801L3.4258 17.0805L3.42619 17.0809L3.42658 17.0813L3.42698 17.0817L3.42738 17.0821L3.42778 17.0825L3.42818 17.0829L3.42858 17.0833L3.42899 17.0837L3.4294 17.0841L3.42981 17.0845L3.43022 17.0849L3.43063 17.0853L3.43105 17.0857L3.43147 17.0862L3.43189 17.0866L3.43231 17.087L3.43273 17.0874L3.43316 17.0879L3.43359 17.0883L3.43402 17.0887L3.43445 17.0891L3.43488 17.0896L3.43531 17.09L3.43575 17.0904L3.43619 17.0909L3.43663 17.0913L3.43707 17.0918L3.43752 17.0922L3.43796 17.0927L3.43841 17.0931L3.43886 17.0935L3.43931 17.094L3.43976 17.0945L3.44021 17.0949L3.44067 17.0954L3.44113 17.0958L3.44159 17.0963L3.44205 17.0967L3.44251 17.0972L3.44297 17.0977L3.44344 17.0981L3.44391 17.0986L3.44438 17.0991L3.44485 17.0995L3.44532 17.1L3.44579 17.1005L3.44627 17.101L3.44674 17.1014L3.44722 17.1019L3.4477 17.1024L3.44818 17.1029L3.44866 17.1034L3.44915 17.1038L3.44963 17.1043L3.45012 17.1048L3.45061 17.1053L3.4511 17.1058L3.45159 17.1063L3.45208 17.1068L3.45257 17.1073L3.45307 17.1078L3.45356 17.1083L3.45406 17.1088L3.45456 17.1093L3.45506 17.1098L3.45556 17.1103L3.45606 17.1108L3.45657 17.1113L3.45707 17.1118L3.45758 17.1123L3.45809 17.1128L3.45859 17.1133L3.4591 17.1138L3.45962 17.1143L3.46013 17.1148L3.46064 17.1153L3.46116 17.1158L3.46167 17.1164L3.46219 17.1169L3.46271 17.1174L3.46322 17.1179L3.46374 17.1184L3.46427 17.119L3.46479 17.1195L3.46531 17.12L3.46584 17.1205L3.46636 17.1211L3.46689 17.1216L3.46741 17.1221L3.46794 17.1226L3.46847 17.1232L3.469 17.1237L3.46953 17.1242L3.47006 17.1248L3.4706 17.1253L3.47113 17.1258L3.47166 17.1264L3.4722 17.1269L3.47274 17.1274L3.47327 17.128L3.47381 17.1285L3.47435 17.129L3.47489 17.1296L3.47543 17.1301L3.47597 17.1307L3.47651 17.1312L3.47706 17.1317L3.4776 17.1323L3.47814 17.1328L3.47869 17.1334L3.47923 17.1339L3.47978 17.1345L3.48033 17.135L3.48087 17.1356L3.48142 17.1361L3.48197 17.1367L3.48252 17.1372L3.48307 17.1378L3.48362 17.1383L3.48417 17.1389L3.48472 17.1394L3.48528 17.14L3.48583 17.1405L3.48638 17.1411L3.48694 17.1416L3.48749 17.1422L3.48805 17.1427L3.4886 17.1433L3.48916 17.1438L3.48971 17.1444L3.49027 17.145L3.49083 17.1455L3.49138 17.1461L3.49194 17.1466L3.4925 17.1472L3.49306 17.1478L3.49362 17.1483L3.49418 17.1489L3.49474 17.1494L3.4953 17.15L3.49586 17.1506L3.49642 17.1511L3.49698 17.1517L3.49754 17.1522L3.4981 17.1528L3.49867 17.1534L3.49923 17.1539L3.49979 17.1545L3.50035 17.155L3.50091 17.1556L3.50148 17.1562L3.50204 17.1567L3.5026 17.1573L3.50317 17.1579L3.50373 17.1584L3.50429 17.159L3.50486 17.1595L3.50542 17.1601L3.50599 17.1607L3.50655 17.1612L3.50711 17.1618L3.50768 17.1624L3.50824 17.1629L3.50881 17.1635L3.50937 17.1641L3.50993 17.1646L3.5105 17.1652L3.51106 17.1658L3.51163 17.1663L3.51219 17.1669L3.51275 17.1674L3.51332 17.168L3.51388 17.1686L3.51445 17.1691L3.51501 17.1697L3.51557 17.1703L3.51614 17.1708L3.5167 17.1714L3.51726 17.172L3.51782 17.1725L3.51839 17.1731L3.51895 17.1736L3.51951 17.1742L3.52007 17.1748L3.52063 17.1753L3.52119 17.1759L3.52176 17.1764L3.52232 17.177L3.52288 17.1776L3.52344 17.1781L3.524 17.1787L3.52456 17.1792L3.52512 17.1798L3.52567 17.1804L3.52623 17.1809L3.52679 17.1815L3.52735 17.182L3.5279 17.1826L3.52846 17.1832L3.52902 17.1837L3.52957 17.1843L3.53013 17.1848L3.53068 17.1854L3.53124 17.1859L3.53179 17.1865L3.53234 17.187L3.5329 17.1876L3.53345 17.1881L3.534 17.1887L3.53455 17.1892L3.5351 17.1898L3.53565 17.1903L3.5362 17.1909L3.53675 17.1914L3.5373 17.192L3.53784 17.1925L3.53839 17.1931L3.53894 17.1936L3.53948 17.1942L3.54003 17.1947L3.54057 17.1953L3.54111 17.1958L3.54166 17.1963L3.5422 17.1969L3.54274 17.1974L3.54328 17.198L3.54382 17.1985L3.54436 17.199L3.54489 17.1996L3.54543 17.2001L3.54597 17.2007L3.5465 17.2012L3.54704 17.2017L3.54757 17.2023L3.5481 17.2028L3.54863 17.2033L3.54916 17.2039L3.54969 17.2044L3.55022 17.2049L3.55075 17.2054L3.55128 17.206L3.5518 17.2065L3.55233 17.207L3.55285 17.2075L3.55338 17.2081L3.5539 17.2086L3.55442 17.2091L3.55494 17.2096L3.55546 17.2101L3.55597 17.2107L3.55649 17.2112L3.55701 17.2117L3.55752 17.2122L3.55803 17.2127L3.55854 17.2132L3.55905 17.2137L3.55956 17.2143L3.56007 17.2148L3.56058 17.2153L3.56109 17.2158L3.56159 17.2163L3.56209 17.2168L3.5626 17.2173L3.5631 17.2178L3.5636 17.2183L3.56409 17.2188L3.56459 17.2193L3.56509 17.2198L3.56558 17.2203L3.56608 17.2208L3.56657 17.2213L3.56706 17.2217L3.56755 17.2222L3.56803 17.2227L3.56852 17.2232L3.569 17.2237L3.56949 17.2242L3.56997 17.2247L3.57045 17.2251L3.57093 17.2256L3.57141 17.2261L3.57188 17.2266L3.57236 17.227L3.57283 17.2275L3.5733 17.228L3.57377 17.2285L3.57424 17.2289L3.57471 17.2294L3.57517 17.2299L3.57563 17.2303L3.5761 17.2308L3.57656 17.2312L3.57701 17.2317L3.57747 17.2322L3.57793 17.2326L3.57838 17.2331L3.57883 17.2335L3.57928 17.234L3.57973 17.2344L3.58018 17.2349L3.58062 17.2353L3.58107 17.2358L3.58151 17.2362L3.58195 17.2366L3.58238 17.2371L3.58282 17.2375L3.58325 17.2379L3.58369 17.2384L3.58412 17.2388L3.58455 17.2392L3.58497 17.2397L3.5854 17.2401L3.58582 17.2405L3.58624 17.2409L3.58666 17.2414L3.58708 17.2418L3.58749 17.2422L3.58791 17.2426L3.58832 17.243L3.58873 17.2434L3.58914 17.2438L3.58954 17.2442L3.58994 17.2446L3.59035 17.245L3.59074 17.2454L3.59114 17.2458L3.59154 17.2462L3.59193 17.2466L3.59232 17.247L3.59271 17.2474L3.5931 17.2478L3.59348 17.2482L3.59386 17.2486L3.59424 17.2489L3.59462 17.2493L3.595 17.2497L3.59537 17.2501L3.59574 17.2504L3.59611 17.2508L3.59648 17.2512L3.59684 17.2515L3.59721 17.2519L3.59757 17.2523L3.59792 17.2526L3.59828 17.253L3.59863 17.2533L3.59898 17.2537L3.59933 17.254L3.59968 17.2544L3.60002 17.2547L3.60036 17.2551L3.6007 17.2554L3.60104 17.2557L3.60137 17.2561L3.6017 17.2564L3.60203 17.2567L3.60236 17.2571L3.60268 17.2574L3.60301 17.2577L3.60333 17.258L3.60364 17.2583L3.60396 17.2586L3.60427 17.259L3.60458 17.2593L3.60488 17.2596L3.60519 17.2599L3.60549 17.2602L3.60579 17.2605L3.60608 17.2608L3.60638 17.2611L3.60667 17.2614L3.60696 17.2616L3.60724 17.2619L3.60753 17.2622L3.60781 17.2625L3.60808 17.2628L3.60836 17.2631L3.60863 17.2633L3.6089 17.2636L3.60917 17.2639L3.60943 17.2641L3.60969 17.2644L3.60995 17.2646L3.6102 17.2649L3.61046 17.2651L3.61071 17.2654L3.61095 17.2656L3.6112 17.2659L3.61144 17.2661L3.61168 17.2664L3.61191 17.2666L3.61215 17.2668L3.61237 17.2671L3.6126 17.2673L3.61283 17.2675L3.61305 17.2677L3.61326 17.268L3.61348 17.2682L3.61369 17.2684L3.6139 17.2686L3.6141 17.2688L3.61431 17.269L3.61451 17.2692L3.6147 17.2694L3.6149 17.2696L3.61509 17.2698L3.61527 17.27L3.61546 17.2701L3.61564 17.2703L3.61582 17.2705L3.61599 17.2707L3.61616 17.2709L3.61633 17.271L3.6165 17.2712L3.61666 17.2713L3.61682 17.2715L3.6179 17.2726L3.61898 17.2737L3.62007 17.2748L3.62115 17.2758L3.62223 17.2769L3.62331 17.278L3.62439 17.2791L3.62546 17.2802L3.62654 17.2812L3.62762 17.2823L3.62869 17.2834L3.62976 17.2845L3.63084 17.2855L3.63191 17.2866L3.63298 17.2877L3.63405 17.2887L3.63511 17.2898L3.63618 17.2909L3.63725 17.2919L3.63831 17.293L3.63938 17.2941L3.64044 17.2951L3.6415 17.2962L3.64256 17.2973L3.64362 17.2983L3.64468 17.2994L3.64574 17.3004L3.6468 17.3015L3.64785 17.3025L3.64891 17.3036L3.64996 17.3047L3.65102 17.3057L3.65207 17.3068L3.65312 17.3078L3.65417 17.3089L3.65522 17.3099L3.65627 17.311L3.65732 17.312L3.65836 17.3131L3.65941 17.3141L3.66045 17.3151L3.6615 17.3162L3.66254 17.3172L3.66358 17.3183L3.66462 17.3193L3.66566 17.3204L3.6667 17.3214L3.66774 17.3224L3.66878 17.3235L3.66982 17.3245L3.67085 17.3255L3.67189 17.3266L3.67292 17.3276L3.67395 17.3286L3.67499 17.3297L3.67602 17.3307L3.67705 17.3317L3.67808 17.3328L3.6791 17.3338L3.68013 17.3348L3.68116 17.3359L3.68219 17.3369L3.68321 17.3379L3.68423 17.3389L3.68526 17.3399L3.68628 17.341L3.6873 17.342L3.68832 17.343L3.68934 17.344L3.69036 17.3451L3.69138 17.3461L3.6924 17.3471L3.69341 17.3481L3.69443 17.3491L3.69545 17.3501L3.69646 17.3512L3.69747 17.3522L3.69849 17.3532L3.6995 17.3542L3.70051 17.3552L3.70152 17.3562L3.70253 17.3572L3.70354 17.3582L3.70454 17.3592L3.70555 17.3602L3.70656 17.3612L3.70756 17.3623L3.70857 17.3633L3.70957 17.3643L3.71057 17.3653L3.71158 17.3663L3.71258 17.3673L3.71358 17.3683L3.71458 17.3693L3.71558 17.3703L3.71657 17.3713L3.71757 17.3723L3.71857 17.3733L3.71957 17.3743L3.72056 17.3753L3.72155 17.3762L3.72255 17.3772L3.72354 17.3782L3.72453 17.3792L3.72553 17.3802L3.72652 17.3812L3.72751 17.3822L3.7285 17.3832L3.72949 17.3842L3.73047 17.3852L3.73146 17.3862L3.73245 17.3871L3.73343 17.3881L3.73442 17.3891L3.7354 17.3901L3.73639 17.3911L3.73737 17.3921L3.73835 17.393L3.73933 17.394L3.74032 17.395L3.7413 17.396L3.74228 17.397L3.74325 17.3979L3.74423 17.3989L3.74521 17.3999L3.74619 17.4009L3.74716 17.4019L3.74814 17.4028L3.74911 17.4038L3.75009 17.4048L3.75106 17.4058L3.75204 17.4067L3.75301 17.4077L3.75398 17.4087L3.75495 17.4096L3.75592 17.4106L3.75689 17.4116L3.75786 17.4126L3.75883 17.4135L3.7598 17.4145L3.76077 17.4155L3.76173 17.4164L3.7627 17.4174L3.76366 17.4184L3.76463 17.4193L3.76559 17.4203L3.76656 17.4212L3.76752 17.4222L3.76848 17.4232L3.76945 17.4241L3.77041 17.4251L3.77137 17.4261L3.77233 17.427L3.77329 17.428L3.77425 17.4289L3.77521 17.4299L3.77616 17.4309L3.77712 17.4318L3.77808 17.4328L3.77903 17.4337L3.77999 17.4347L3.78095 17.4356L3.7819 17.4366L3.78285 17.4375L3.78381 17.4385L3.78476 17.4395L3.78571 17.4404L3.78666 17.4414L3.78762 17.4423L3.78857 17.4433L3.78952 17.4442L3.79047 17.4452L3.79142 17.4461L3.79237 17.4471L3.79331 17.448L3.79426 17.449L3.79521 17.4499L3.79616 17.4508L3.7971 17.4518L3.79805 17.4527L3.79899 17.4537L3.79994 17.4546L3.80088 17.4556L3.80183 17.4565L3.80277 17.4575L3.80371 17.4584L3.80466 17.4593L3.8056 17.4603L3.80654 17.4612L3.80748 17.4622L3.80842 17.4631L3.80936 17.4641L3.8103 17.465L3.81124 17.4659L3.81218 17.4669L3.81312 17.4678L3.81405 17.4687L3.81499 17.4697L3.81593 17.4706L3.81687 17.4716L3.8178 17.4725L3.81874 17.4734L3.81967 17.4744L3.82061 17.4753L3.82154 17.4762L3.82248 17.4772L3.82341 17.4781L3.82434 17.479L3.82528 17.48L3.82621 17.4809L3.82714 17.4818L3.82807 17.4828L3.829 17.4837L3.82993 17.4846L3.83087 17.4856L3.8318 17.4865L3.83273 17.4874L3.83365 17.4883L3.83458 17.4893L3.83551 17.4902L3.83644 17.4911L3.83737 17.4921L3.8383 17.493L3.83922 17.4939L3.84015 17.4948L3.84108 17.4958L3.842 17.4967L3.84293 17.4976L3.84385 17.4985L3.84478 17.4995L3.8457 17.5004L3.84663 17.5013L3.84755 17.5022L3.84848 17.5032L3.8494 17.5041L3.85032 17.505L3.85125 17.5059L3.85217 17.5069L3.85309 17.5078L3.85401 17.5087L3.85493 17.5096L3.85586 17.5105L3.85678 17.5115L3.8577 17.5124L3.85862 17.5133L3.85954 17.5142L3.86046 17.5151L3.86138 17.5161L3.8623 17.517L3.86322 17.5179L3.86414 17.5188L3.86505 17.5197L3.86597 17.5207L3.86689 17.5216L3.86781 17.5225L3.86873 17.5234L3.86964 17.5243L3.87056 17.5253L3.87148 17.5262L3.87239 17.5271L3.87331 17.528L3.87423 17.5289L3.87514 17.5298L3.87606 17.5307L3.87697 17.5317L3.87789 17.5326L3.8788 17.5335L3.87972 17.5344L3.88063 17.5353L3.88155 17.5362L3.88246 17.5372L3.88337 17.5381L3.88429 17.539L3.8852 17.5399L3.88611 17.5408L3.88703 17.5417L3.88794 17.5426L3.88885 17.5435L3.88977 17.5445L3.89068 17.5454L3.89159 17.5463L3.8925 17.5472L3.89341 17.5481L3.89433 17.549L3.89524 17.5499L3.89615 17.5508L3.89706 17.5518L3.89797 17.5527L3.89888 17.5536L3.89979 17.5545L3.9007 17.5554L3.90161 17.5563L3.90252 17.5572L3.90343 17.5581L3.90434 17.559L3.90525 17.5599L3.90616 17.5609L3.90707 17.5618L3.90798 17.5627L3.90889 17.5636L3.9098 17.5645L3.91071 17.5654L3.91162 17.5663L3.91253 17.5672L3.91344 17.5681L3.91435 17.569L3.91526 17.5699L3.91616 17.5709L3.91707 17.5718L3.91798 17.5727L3.91889 17.5736L3.9198 17.5745L3.92071 17.5754L3.92161 17.5763L3.92252 17.5772L3.92343 17.5781L3.92434 17.579L3.92525 17.5799L3.92615 17.5808L3.92706 17.5818L3.92797 17.5827L3.92888 17.5836L3.92979 17.5845L3.93069 17.5854L3.9316 17.5863L3.93251 17.5872L3.93342 17.5881L3.93432 17.589L3.93523 17.5899L3.93614 17.5908L3.93705 17.5917L3.93795 17.5926L3.93886 17.5936L3.93977 17.5945L3.94068 17.5954L3.94158 17.5963L3.94249 17.5972L3.9434 17.5981L3.9443 17.599L3.94521 17.5999L3.94612 17.6008L3.94703 17.6017L3.94793 17.6026L3.94884 17.6035L3.94975 17.6044L3.95066 17.6053L3.95156 17.6063L3.95247 17.6072L3.95338 17.6081L3.95429 17.609L3.9552 17.6099L3.9561 17.6108L3.95701 17.6117L3.95792 17.6126L3.95883 17.6135L3.95974 17.6144L3.96064 17.6153L3.96155 17.6162L3.96246 17.6172L3.96337 17.6181L3.96428 17.619L3.96519 17.6199L3.96609 17.6208L3.967 17.6217L3.96791 17.6226L3.96882 17.6235L3.96973 17.6244L3.97064 17.6253L3.97155 17.6262L3.97246 17.6271L3.97337 17.6281L3.97428 17.629L3.97518 17.6299L3.97609 17.6308L3.977 17.6317L3.97791 17.6326L3.97882 17.6335L3.97973 17.6344L3.98064 17.6353L3.98156 17.6362L3.98247 17.6372L3.98338 17.6381L3.98429 17.639L3.9852 17.6399L3.98611 17.6408L3.98702 17.6417L3.98793 17.6426L3.98884 17.6435L3.98976 17.6444L3.99067 17.6454L3.99158 17.6463L3.99249 17.6472L3.99341 17.6481L3.99432 17.649L3.99523 17.6499L3.99614 17.6508L3.99706 17.6517L3.99797 17.6527L3.99888 17.6536L3.9998 17.6545L4.00071 17.6554L4.00163 17.6563L4.00254 17.6572L4.00346 17.6581L4.00437 17.6591L4.00529 17.66L4.0062 17.6609L4.00712 17.6618L4.00803 17.6627L4.00895 17.6636L4.00987 17.6646L4.01078 17.6655L4.0117 17.6664L4.01262 17.6673L4.01353 17.6682L4.01445 17.6691L4.01537 17.6701L4.01629 17.671L4.01721 17.6719L4.01812 17.6728L4.01904 17.6737L4.01996 17.6747L4.02088 17.6756L4.0218 17.6765L4.02272 17.6774L4.02364 17.6783L4.02456 17.6793L4.02548 17.6802L4.0264 17.6811L4.02732 17.682L4.02825 17.6829L4.02917 17.6839L4.03009 17.6848L4.03101 17.6857L4.03194 17.6866L4.03286 17.6876L4.03378 17.6885L4.03471 17.6894L4.03563 17.6903L4.03656 17.6912L4.03748 17.6922L4.03841 17.6931L4.03933 17.694L4.04026 17.6949L4.04118 17.6959L4.04211 17.6968L4.04304 17.6977L4.04396 17.6987L4.04489 17.6996L4.04582 17.7005L4.04675 17.7014L4.04768 17.7024L4.04861 17.7033L4.04953 17.7042L4.05046 17.7052L4.05139 17.7061L4.05233 17.707L4.05326 17.7079L4.05419 17.7089L4.05512 17.7098L4.05605 17.7107L4.05698 17.7117L4.05792 17.7126L4.05885 17.7135L4.05978 17.7145L4.06072 17.7154L4.06165 17.7163L4.06259 17.7173L4.06352 17.7182L4.06446 17.7192L4.06539 17.7201L4.06633 17.721L4.06727 17.722L4.06821 17.7229L4.06914 17.7238L4.07008 17.7248L4.07102 17.7257L4.07196 17.7267L4.0729 17.7276L4.07384 17.7285L4.07478 17.7295L4.07572 17.7304L4.07666 17.7314L4.07761 17.7323L4.07855 17.7332L4.07949 17.7342L4.08043 17.7351L4.08138 17.7361L4.08232 17.737L4.08327 17.738L4.08421 17.7389L4.08516 17.7399L4.08611 17.7408L4.08705 17.7417L4.088 17.7427L4.08895 17.7436L4.0899 17.7446L4.09085 17.7455L4.09179 17.7465L4.09274 17.7474L4.09369 17.7484L4.09465 17.7493L4.0956 17.7503L4.09655 17.7512L4.0975 17.7522L4.09846 17.7531L4.09941 17.7541L4.10036 17.7551L4.10132 17.756L4.10227 17.757L4.10323 17.7579L4.10419 17.7589L4.10418 17.7589L4.10628 17.761C5.92155 19.5468 8.37056 20.5404 10.917 20.5243C13.4634 20.5082 15.8996 19.4836 17.6921 17.6749L17.9463 17.4184L17.6898 17.1642L16.0766 15.5656Z" fill="white" stroke="white" stroke-width="0.722166"/>
<path d="M13.8886 14.3988L14.1411 14.6513L14.3964 14.4017C14.8682 13.9404 15.2431 13.3895 15.4988 12.7812C15.7546 12.1729 15.886 11.5196 15.8856 10.8598C15.8851 10.1999 15.7526 9.54683 15.496 8.93893C15.2399 8.33244 14.8654 7.78316 14.3944 7.32326C13.1994 6.09905 11.9832 4.89261 10.7694 3.68857C10.1634 3.08744 9.55801 2.4869 8.95615 1.88504C8.92578 1.85432 8.86874 1.79729 8.81999 1.74862L8.75556 1.68436L8.73563 1.6645L8.73017 1.65905L8.72873 1.65762L8.72837 1.65726L8.72827 1.65716L8.72825 1.65714L8.72824 1.65713L8.58761 1.51708L8.39401 1.56074L8.47344 1.91298L8.39397 1.56075L8.39393 1.56076L8.39384 1.56078L8.39363 1.56083L8.39309 1.56095L8.39148 1.56132L8.38631 1.56251L8.36875 1.56668C8.35411 1.57021 8.3337 1.57527 8.30961 1.58161C8.26243 1.59402 8.1968 1.61245 8.13143 1.63502C7.72754 1.77444 7.31794 1.939 6.8958 2.10861C6.60299 2.22625 6.30414 2.34632 5.99697 2.46211L5.47323 2.65953L5.86901 3.05531L6.35637 3.54268L6.36785 3.55416L6.37933 3.56564L6.39081 3.57712L6.4023 3.5886L6.41378 3.60008L6.42526 3.61156L6.43674 3.62304L6.44822 3.63452L6.4597 3.64601L6.47118 3.65749L6.48267 3.66897L6.49415 3.68045L6.50563 3.69193L6.51711 3.70342L6.5286 3.7149L6.54008 3.72638L6.55156 3.73787L6.56305 3.74935L6.57453 3.76083L6.58601 3.77232L6.5975 3.7838L6.60898 3.79529L6.62047 3.80677L6.63195 3.81826L6.64344 3.82974L6.65492 3.84123L6.66641 3.85271L6.67789 3.8642L6.68938 3.87568L6.70086 3.88717L6.71235 3.89865L6.72384 3.91014L6.73532 3.92163L6.74681 3.93311L6.75829 3.9446L6.76978 3.95609L6.78127 3.96757L6.79276 3.97906L6.80424 3.99055L6.81573 4.00204L6.82722 4.01352L6.83871 4.02501L6.85019 4.0365L6.86168 4.04799L6.87317 4.05948L6.88466 4.07097L6.89615 4.08245L6.90764 4.09394L6.91913 4.10543L6.93062 4.11692L6.94211 4.12841L6.9536 4.1399L6.96508 4.15139L6.97657 4.16288L6.98806 4.17437L6.99955 4.18586L7.01105 4.19735L7.02254 4.20884L7.03403 4.22033L7.04552 4.23182L7.05701 4.24331L7.0685 4.2548L7.07999 4.2663L7.09148 4.27779L7.10297 4.28928L7.11446 4.30077L7.12596 4.31226L7.13745 4.32375L7.14894 4.33525L7.16043 4.34674L7.17192 4.35823L7.18342 4.36972L7.19491 4.38121L7.2064 4.39271L7.2179 4.4042L7.22939 4.41569L7.24088 4.42719L7.25237 4.43868L7.26387 4.45017L7.27536 4.46167L7.28685 4.47316L7.29835 4.48465L7.30984 4.49615L7.32134 4.50764L7.33283 4.51913L7.34432 4.53063L7.35582 4.54212L7.36731 4.55362L7.37881 4.56511L7.3903 4.57661L7.4018 4.5881L7.41329 4.5996L7.42479 4.61109L7.43628 4.62259L7.44778 4.63408L7.45927 4.64558L7.47077 4.65707L7.48226 4.66857L7.49376 4.68006L7.50525 4.69156L7.51675 4.70305L7.52824 4.71455L7.53974 4.72604L7.55124 4.73754L7.56273 4.74904L7.57423 4.76053L7.58572 4.77203L7.59722 4.78352L7.60872 4.79502L7.62021 4.80652L7.63171 4.81801L7.64321 4.82951L7.6547 4.84101L7.6662 4.8525L7.6777 4.864L7.68919 4.8755L7.70069 4.88699L7.71219 4.89849L7.72368 4.90999L7.73518 4.92149L7.74668 4.93298L7.75818 4.94448L7.76967 4.95598L7.78117 4.96748L7.79267 4.97897L7.80417 4.99047L7.81566 5.00197L7.82716 5.01347L7.83866 5.02496L7.85016 5.03646L7.86165 5.04796L7.87315 5.05946L7.88465 5.07095L7.89615 5.08245L7.90765 5.09395L7.91914 5.10545L7.93064 5.11695L7.94214 5.12844L7.95364 5.13994L7.96514 5.15144L7.97663 5.16294L7.98813 5.17444L7.99963 5.18594L8.01113 5.19743L8.02263 5.20893L8.03413 5.22043L8.04562 5.23193L8.05712 5.24343L8.06862 5.25493L8.08012 5.26642L8.09162 5.27792L8.10312 5.28942L8.11462 5.30092L8.12611 5.31242L8.13761 5.32392L8.14911 5.33542L8.16061 5.34692L8.17211 5.35841L8.18361 5.36991L8.19511 5.38141L8.20661 5.39291L8.2181 5.40441L8.2296 5.41591L8.2411 5.42741L8.2526 5.43891L8.2641 5.4504L8.2756 5.4619L8.2871 5.4734L8.2986 5.4849L8.31009 5.4964L8.32159 5.5079L8.33309 5.5194L8.34459 5.5309L8.35609 5.5424L8.36759 5.55389L8.37909 5.56539L8.39059 5.57689L8.40209 5.58839L8.41358 5.59989L8.42508 5.61139L8.43658 5.62289L8.44808 5.63439L8.45958 5.64588L8.47108 5.65738L8.48258 5.66888L8.49408 5.68038L8.50557 5.69188L8.51707 5.70338L8.52857 5.71488L8.54007 5.72638L8.55157 5.73787L8.56307 5.74937L8.57457 5.76087L8.58606 5.77237L8.59756 5.78387L8.60906 5.79537L8.62056 5.80686L8.63206 5.81836L8.64356 5.82986L8.65505 5.84136L8.66655 5.85286L8.67805 5.86436L8.68955 5.87585L8.70105 5.88735L8.71255 5.89885L8.72404 5.91035L8.73554 5.92185L8.74704 5.93334L8.75854 5.94484L8.77004 5.95634L8.78153 5.96784L8.79303 5.97934L8.80453 5.99083L8.81603 6.00233L8.82752 6.01383L8.83902 6.02533L8.85052 6.03682L8.86202 6.04832L8.87351 6.05982L8.88501 6.07132L8.89651 6.08281L8.90801 6.09431L8.9195 6.10581L8.931 6.1173L8.9425 6.1288L8.95399 6.1403L8.96549 6.1518L8.97699 6.16329L8.98848 6.17479L8.99998 6.18628L9.01148 6.19778L9.02297 6.20928L9.03447 6.22077L9.04597 6.23227L9.05746 6.24377L9.06896 6.25526L9.08045 6.26676L9.09195 6.27825L9.10345 6.28975L9.11494 6.30125L9.12644 6.31274L9.13793 6.32424L9.14943 6.33573L9.16092 6.34723L9.17242 6.35872L9.18391 6.37022L9.19541 6.38171L9.2069 6.39321L9.2184 6.4047L9.22989 6.4162L9.24139 6.42769L9.25288 6.43919L9.26438 6.45068L9.27587 6.46218L9.28737 6.47367L9.29886 6.48516L9.31035 6.49666L9.32185 6.50815L9.33334 6.51965L9.34484 6.53114L9.35633 6.54263L9.36782 6.55413L9.37932 6.56562L9.39081 6.57711L9.4023 6.58861L9.4138 6.6001L9.42529 6.61159L9.43678 6.62309L9.44827 6.63458L9.45977 6.64607L9.47126 6.65756L9.48275 6.66906L9.49424 6.68055L9.50573 6.69204L9.51723 6.70353L9.52872 6.71502L9.54021 6.72651L9.5517 6.73801L9.56319 6.7495L9.57468 6.76099L9.58617 6.77248L9.59766 6.78397L9.60916 6.79546L9.62065 6.80695L9.63214 6.81844L9.64363 6.82993L9.65512 6.84142L9.66661 6.85291L9.6781 6.8644L9.68959 6.87589L9.70108 6.88738L9.71256 6.89887L9.72405 6.91036L9.73554 6.92185L9.74703 6.93334L9.75852 6.94483L9.77001 6.95631L9.7815 6.9678L9.79299 6.97929L9.80447 6.99078L9.81596 7.00227L9.82745 7.01375L9.83894 7.02524L9.85042 7.03673L9.86191 7.04822L9.8734 7.0597L9.88488 7.07119L9.89637 7.08268L9.90786 7.09416L9.91934 7.10565L9.93083 7.11713L9.94232 7.12862L9.9538 7.14011L9.96529 7.15159L9.97677 7.16308L9.98826 7.17456L9.99974 7.18605L10.0112 7.19753L10.0227 7.20902L10.0342 7.2205L10.0457 7.23199L10.0572 7.24347L10.0686 7.25495L10.0801 7.26644L10.0916 7.27792L10.1031 7.2894L10.1146 7.30089L10.1261 7.31237L10.1375 7.32385L10.149 7.33533L10.1605 7.34682L10.172 7.3583L10.1835 7.36978L10.195 7.38126L10.2064 7.39274L10.2179 7.40422L10.2294 7.4157L10.2409 7.42718L10.2524 7.43867L10.2638 7.45015L10.2753 7.46163L10.2868 7.47311L10.2983 7.48458L10.3098 7.49606L10.3212 7.50754L10.3327 7.51902L10.3442 7.5305L10.3557 7.54198L10.3672 7.55346L10.3786 7.56494L10.3901 7.57641L10.4016 7.58789L10.4131 7.59937L10.4245 7.61084L10.436 7.62232L10.4475 7.6338L10.459 7.64527L10.4704 7.65675L10.4819 7.66823L10.4934 7.6797L10.5049 7.69118L10.5163 7.70265L10.5278 7.71413L10.5393 7.7256L10.5508 7.73708L10.5622 7.74855L10.5737 7.76002L10.5852 7.7715L10.5967 7.78297L10.6081 7.79444L10.6196 7.80592L10.6311 7.81739L10.6426 7.82886L10.654 7.84033L10.6655 7.8518L10.677 7.86328L10.6884 7.87475L10.6999 7.88622L10.7114 7.89769L10.7229 7.90916L10.7343 7.92063L10.7458 7.9321L10.7573 7.94357L10.7687 7.95504L10.7802 7.96651L10.7917 7.97797L10.8031 7.98944L10.8146 8.00091L10.8261 8.01238L10.8375 8.02385L10.849 8.03531L10.8605 8.04678L10.8719 8.05825L10.8834 8.06971L10.8949 8.08118L10.9063 8.09265L10.9178 8.10411L10.9293 8.11558L10.9407 8.12704L10.9522 8.13851L10.9637 8.14997L10.9751 8.16143L10.9866 8.1729L10.9981 8.18436L11.0095 8.19582L11.021 8.20729L11.0324 8.21875L11.0439 8.23021L11.0554 8.24167L11.0668 8.25314L11.0783 8.2646L11.0898 8.27606L11.1012 8.28752L11.1127 8.29898L11.1241 8.31044L11.1356 8.3219L11.1471 8.33336L11.1585 8.34482L11.17 8.35628L11.1814 8.36773L11.1929 8.37919L11.2043 8.39065L11.2158 8.40211L11.2273 8.41356L11.2387 8.42502L11.2502 8.43648L11.2616 8.44793L11.2731 8.45939L11.2845 8.47084L11.296 8.4823L11.3074 8.49375L11.3189 8.50521L11.3304 8.51666L11.3418 8.52812L11.3533 8.53957L11.3647 8.55102L11.3762 8.56248L11.3876 8.57393L11.3991 8.58538L11.4105 8.59683L11.422 8.60828L11.4334 8.61973L11.4449 8.63118L11.4563 8.64263L11.4678 8.65408L11.4792 8.66553L11.4907 8.67698L11.5021 8.68843L11.5136 8.69988L11.525 8.71133L11.5365 8.72278L11.5479 8.73422L11.5594 8.74567L11.5708 8.75712L11.5823 8.76856L11.5937 8.78001L11.6051 8.79145L11.6166 8.8029L11.628 8.81434L11.6395 8.82579L11.6509 8.83723L11.6624 8.84868L11.6738 8.86012L11.6853 8.87156L11.6967 8.883L11.7081 8.89445L11.7196 8.90589L11.731 8.91733L11.7425 8.92877L11.7539 8.94021L11.7653 8.95165L11.7768 8.96309L11.7882 8.97453L11.7997 8.98597L11.8111 8.99741L11.8225 9.00884L11.834 9.02028L11.8454 9.03172L11.8569 9.04316L11.8683 9.05459L11.8797 9.06603L11.8912 9.07746L11.9026 9.0889L11.914 9.10033L11.9255 9.11177L11.9369 9.1232L11.9483 9.13464L11.9598 9.14607L11.9712 9.1575L11.9826 9.16894L11.9941 9.18037L12.0055 9.1918L12.0169 9.20323L12.0284 9.21466L12.0398 9.22609L12.0512 9.23752L12.0626 9.24895L12.0741 9.26038L12.0855 9.27181L12.0969 9.28324L12.1084 9.29466L12.1198 9.30609L12.1312 9.31752L12.1426 9.32894L12.1541 9.34037L12.1655 9.3518L12.1769 9.36322L12.1883 9.37465L12.1998 9.38607L12.2112 9.39749L12.2226 9.40892L12.234 9.42034L12.2339 9.42049L12.2429 9.42887C12.4372 9.61041 12.5928 9.82939 12.7003 10.0726C12.8078 10.3158 12.865 10.5783 12.8685 10.8442L13.2296 10.8395L12.8685 10.8442C12.872 11.1101 12.8216 11.374 12.7205 11.62C12.6193 11.8659 12.4695 12.0888 12.2799 12.2754L12.0205 12.5307L12.2779 12.7881L13.8886 14.3988Z" fill="white" stroke="white" stroke-width="0.722166"/>
<path d="M15.5677 15.5667L15.3125 15.8208L15.566 16.0767L17.1646 17.6899L17.4188 17.9464L17.6752 17.6922C19.4839 15.8997 20.5085 13.4635 20.5247 10.9171C20.5408 8.37068 19.5472 5.92167 17.7613 4.1064L17.7613 4.10639L17.7592 4.1043L17.7583 4.10335L17.7573 4.10239L17.7564 4.10143L17.7554 4.10048L17.7545 4.09953L17.7535 4.09857L17.7526 4.09762L17.7516 4.09667L17.7507 4.09571L17.7497 4.09476L17.7488 4.09381L17.7478 4.09286L17.7469 4.09191L17.7459 4.09096L17.745 4.09001L17.744 4.08906L17.7431 4.08812L17.7421 4.08717L17.7412 4.08622L17.7402 4.08528L17.7393 4.08433L17.7383 4.08339L17.7374 4.08244L17.7364 4.0815L17.7355 4.08055L17.7346 4.07961L17.7336 4.07867L17.7327 4.07772L17.7317 4.07678L17.7308 4.07584L17.7298 4.0749L17.7289 4.07396L17.728 4.07302L17.727 4.07208L17.7261 4.07114L17.7251 4.0702L17.7242 4.06926L17.7233 4.06832L17.7223 4.06739L17.7214 4.06645L17.7205 4.06551L17.7195 4.06458L17.7186 4.06364L17.7177 4.0627L17.7167 4.06177L17.7158 4.06083L17.7148 4.0599L17.7139 4.05897L17.713 4.05803L17.712 4.0571L17.7111 4.05617L17.7102 4.05524L17.7093 4.0543L17.7083 4.05337L17.7074 4.05244L17.7065 4.05151L17.7055 4.05058L17.7046 4.04965L17.7037 4.04872L17.7027 4.04779L17.7018 4.04686L17.7009 4.04594L17.7 4.04501L17.699 4.04408L17.6981 4.04315L17.6972 4.04223L17.6962 4.0413L17.6953 4.04037L17.6944 4.03945L17.6935 4.03852L17.6925 4.0376L17.6916 4.03667L17.6907 4.03575L17.6898 4.03482L17.6888 4.0339L17.6879 4.03298L17.687 4.03205L17.6861 4.03113L17.6852 4.03021L17.6842 4.02929L17.6833 4.02836L17.6824 4.02744L17.6815 4.02652L17.6805 4.0256L17.6796 4.02468L17.6787 4.02376L17.6778 4.02284L17.6769 4.02192L17.6759 4.021L17.675 4.02008L17.6741 4.01916L17.6732 4.01824L17.6723 4.01732L17.6713 4.0164L17.6704 4.01549L17.6695 4.01457L17.6686 4.01365L17.6677 4.01273L17.6668 4.01182L17.6658 4.0109L17.6649 4.00998L17.664 4.00907L17.6631 4.00815L17.6622 4.00723L17.6613 4.00632L17.6603 4.0054L17.6594 4.00449L17.6585 4.00357L17.6576 4.00266L17.6567 4.00174L17.6558 4.00083L17.6549 3.99992L17.6539 3.999L17.653 3.99809L17.6521 3.99717L17.6512 3.99626L17.6503 3.99535L17.6494 3.99444L17.6485 3.99352L17.6476 3.99261L17.6466 3.9917L17.6457 3.99079L17.6448 3.98987L17.6439 3.98896L17.643 3.98805L17.6421 3.98714L17.6412 3.98623L17.6403 3.98532L17.6394 3.9844L17.6384 3.98349L17.6375 3.98258L17.6366 3.98167L17.6357 3.98076L17.6348 3.97985L17.6339 3.97894L17.633 3.97803L17.6321 3.97712L17.6312 3.97621L17.6302 3.9753L17.6293 3.97439L17.6284 3.97348L17.6275 3.97257L17.6266 3.97166L17.6257 3.97075L17.6248 3.96985L17.6239 3.96894L17.623 3.96803L17.6221 3.96712L17.6212 3.96621L17.6202 3.9653L17.6193 3.96439L17.6184 3.96349L17.6175 3.96258L17.6166 3.96167L17.6157 3.96076L17.6148 3.95985L17.6139 3.95894L17.613 3.95804L17.6121 3.95713L17.6112 3.95622L17.6103 3.95531L17.6094 3.9544L17.6084 3.9535L17.6075 3.95259L17.6066 3.95168L17.6057 3.95077L17.6048 3.94987L17.6039 3.94896L17.603 3.94805L17.6021 3.94714L17.6012 3.94624L17.6003 3.94533L17.5994 3.94442L17.5985 3.94351L17.5976 3.94261L17.5966 3.9417L17.5957 3.94079L17.5948 3.93988L17.5939 3.93898L17.593 3.93807L17.5921 3.93716L17.5912 3.93625L17.5903 3.93535L17.5894 3.93444L17.5885 3.93353L17.5876 3.93262L17.5867 3.93172L17.5858 3.93081L17.5848 3.9299L17.5839 3.92899L17.583 3.92809L17.5821 3.92718L17.5812 3.92627L17.5803 3.92536L17.5794 3.92446L17.5785 3.92355L17.5776 3.92264L17.5767 3.92173L17.5758 3.92082L17.5749 3.91991L17.574 3.91901L17.573 3.9181L17.5721 3.91719L17.5712 3.91628L17.5703 3.91537L17.5694 3.91446L17.5685 3.91355L17.5676 3.91265L17.5667 3.91174L17.5658 3.91083L17.5649 3.90992L17.564 3.90901L17.563 3.9081L17.5621 3.90719L17.5612 3.90628L17.5603 3.90537L17.5594 3.90446L17.5585 3.90355L17.5576 3.90264L17.5567 3.90173L17.5558 3.90082L17.5549 3.89991L17.5539 3.899L17.553 3.89809L17.5521 3.89718L17.5512 3.89627L17.5503 3.89535L17.5494 3.89444L17.5485 3.89353L17.5476 3.89262L17.5467 3.89171L17.5457 3.89079L17.5448 3.88988L17.5439 3.88897L17.543 3.88806L17.5421 3.88714L17.5412 3.88623L17.5403 3.88532L17.5394 3.8844L17.5384 3.88349L17.5375 3.88258L17.5366 3.88166L17.5357 3.88075L17.5348 3.87983L17.5339 3.87892L17.533 3.878L17.532 3.87709L17.5311 3.87617L17.5302 3.87526L17.5293 3.87434L17.5284 3.87343L17.5275 3.87251L17.5265 3.87159L17.5256 3.87068L17.5247 3.86976L17.5238 3.86884L17.5229 3.86792L17.522 3.86701L17.521 3.86609L17.5201 3.86517L17.5192 3.86425L17.5183 3.86333L17.5174 3.86241L17.5164 3.86149L17.5155 3.86058L17.5146 3.85966L17.5137 3.85874L17.5128 3.85781L17.5118 3.85689L17.5109 3.85597L17.51 3.85505L17.5091 3.85413L17.5082 3.85321L17.5072 3.85229L17.5063 3.85136L17.5054 3.85044L17.5045 3.84952L17.5035 3.84859L17.5026 3.84767L17.5017 3.84675L17.5008 3.84582L17.4998 3.8449L17.4989 3.84397L17.498 3.84305L17.4971 3.84212L17.4961 3.84119L17.4952 3.84027L17.4943 3.83934L17.4934 3.83841L17.4924 3.83749L17.4915 3.83656L17.4906 3.83563L17.4896 3.8347L17.4887 3.83377L17.4878 3.83284L17.4869 3.83191L17.4859 3.83098L17.485 3.83005L17.4841 3.82912L17.4831 3.82819L17.4822 3.82726L17.4813 3.82633L17.4803 3.82539L17.4794 3.82446L17.4785 3.82353L17.4775 3.82259L17.4766 3.82166L17.4757 3.82072L17.4747 3.81979L17.4738 3.81885L17.4729 3.81792L17.4719 3.81698L17.471 3.81605L17.4701 3.81511L17.4691 3.81417L17.4682 3.81323L17.4672 3.8123L17.4663 3.81136L17.4654 3.81042L17.4644 3.80948L17.4635 3.80854L17.4625 3.8076L17.4616 3.80666L17.4607 3.80571L17.4597 3.80477L17.4588 3.80383L17.4578 3.80289L17.4569 3.80194L17.4559 3.801L17.455 3.80006L17.4541 3.79911L17.4531 3.79816L17.4522 3.79722L17.4512 3.79627L17.4503 3.79533L17.4493 3.79438L17.4484 3.79343L17.4474 3.79248L17.4465 3.79153L17.4455 3.79058L17.4446 3.78963L17.4436 3.78868L17.4427 3.78773L17.4417 3.78678L17.4408 3.78583L17.4398 3.78488L17.4389 3.78392L17.4379 3.78297L17.437 3.78202L17.436 3.78106L17.4351 3.78011L17.4341 3.77915L17.4331 3.77819L17.4322 3.77724L17.4312 3.77628L17.4303 3.77532L17.4293 3.77436L17.4284 3.7734L17.4274 3.77244L17.4264 3.77148L17.4255 3.77052L17.4245 3.76956L17.4235 3.7686L17.4226 3.76764L17.4216 3.76667L17.4207 3.76571L17.4197 3.76475L17.4187 3.76378L17.4178 3.76282L17.4168 3.76185L17.4158 3.76088L17.4149 3.75992L17.4139 3.75895L17.4129 3.75798L17.412 3.75701L17.411 3.75604L17.41 3.75507L17.409 3.7541L17.4081 3.75313L17.4071 3.75215L17.4061 3.75118L17.4052 3.75021L17.4042 3.74923L17.4032 3.74826L17.4022 3.74728L17.4013 3.7463L17.4003 3.74533L17.3993 3.74435L17.3983 3.74337L17.3973 3.74239L17.3964 3.74141L17.3954 3.74043L17.3944 3.73945L17.3934 3.73847L17.3924 3.73749L17.3915 3.7365L17.3905 3.73552L17.3895 3.73454L17.3885 3.73355L17.3875 3.73256L17.3865 3.73158L17.3855 3.73059L17.3845 3.7296L17.3836 3.72861L17.3826 3.72762L17.3816 3.72663L17.3806 3.72564L17.3796 3.72465L17.3786 3.72366L17.3776 3.72267L17.3766 3.72167L17.3756 3.72068L17.3746 3.71968L17.3736 3.71869L17.3726 3.71769L17.3716 3.71669L17.3706 3.71569L17.3696 3.71469L17.3686 3.71369L17.3676 3.71269L17.3666 3.71169L17.3656 3.71069L17.3646 3.70969L17.3636 3.70868L17.3626 3.70768L17.3616 3.70667L17.3606 3.70567L17.3596 3.70466L17.3586 3.70365L17.3576 3.70264L17.3566 3.70163L17.3556 3.70062L17.3546 3.69961L17.3535 3.6986L17.3525 3.69759L17.3515 3.69658L17.3505 3.69556L17.3495 3.69455L17.3485 3.69353L17.3475 3.69251L17.3464 3.6915L17.3454 3.69048L17.3444 3.68946L17.3434 3.68844L17.3424 3.68742L17.3413 3.6864L17.3403 3.68537L17.3393 3.68435L17.3383 3.68333L17.3372 3.6823L17.3362 3.68128L17.3352 3.68025L17.3342 3.67922L17.3331 3.67819L17.3321 3.67716L17.3311 3.67613L17.33 3.6751L17.329 3.67407L17.328 3.67304L17.3269 3.672L17.3259 3.67097L17.3249 3.66993L17.3238 3.6689L17.3228 3.66786L17.3218 3.66682L17.3207 3.66578L17.3197 3.66474L17.3186 3.6637L17.3176 3.66266L17.3166 3.66161L17.3155 3.66057L17.3145 3.65953L17.3134 3.65848L17.3124 3.65743L17.3113 3.65639L17.3103 3.65534L17.3092 3.65429L17.3082 3.65324L17.3071 3.65219L17.3061 3.65113L17.305 3.65008L17.304 3.64903L17.3029 3.64797L17.3019 3.64691L17.3008 3.64586L17.2997 3.6448L17.2987 3.64374L17.2976 3.64268L17.2966 3.64162L17.2955 3.64056L17.2944 3.63949L17.2934 3.63843L17.2923 3.63736L17.2912 3.6363L17.2902 3.63523L17.2891 3.63416L17.288 3.63309L17.287 3.63202L17.2859 3.63095L17.2848 3.62988L17.2838 3.62881L17.2827 3.62773L17.2816 3.62666L17.2805 3.62558L17.2794 3.6245L17.2784 3.62343L17.2773 3.62235L17.2762 3.62127L17.2751 3.62018L17.274 3.6191L17.273 3.61802L17.2719 3.61693L17.2717 3.61678L17.2716 3.61661L17.2714 3.61645L17.2712 3.61628L17.2711 3.61611L17.2709 3.61593L17.2707 3.61576L17.2705 3.61558L17.2703 3.61539L17.2701 3.6152L17.27 3.61501L17.2698 3.61482L17.2696 3.61462L17.2694 3.61442L17.2692 3.61422L17.269 3.61402L17.2688 3.61381L17.2685 3.6136L17.2683 3.61338L17.2681 3.61316L17.2679 3.61294L17.2677 3.61272L17.2674 3.61249L17.2672 3.61226L17.267 3.61203L17.2667 3.61179L17.2665 3.61156L17.2663 3.61132L17.266 3.61107L17.2658 3.61082L17.2655 3.61057L17.2653 3.61032L17.265 3.61007L17.2648 3.60981L17.2645 3.60955L17.2642 3.60928L17.264 3.60902L17.2637 3.60875L17.2634 3.60848L17.2631 3.6082L17.2629 3.60792L17.2626 3.60764L17.2623 3.60736L17.262 3.60707L17.2617 3.60679L17.2614 3.60649L17.2611 3.6062L17.2609 3.60591L17.2606 3.60561L17.2603 3.6053L17.2599 3.605L17.2596 3.60469L17.2593 3.60438L17.259 3.60407L17.2587 3.60376L17.2584 3.60344L17.2581 3.60312L17.2577 3.6028L17.2574 3.60248L17.2571 3.60215L17.2568 3.60182L17.2564 3.60149L17.2561 3.60115L17.2558 3.60082L17.2554 3.60048L17.2551 3.60014L17.2547 3.59979L17.2544 3.59945L17.254 3.5991L17.2537 3.59875L17.2533 3.5984L17.253 3.59804L17.2526 3.59768L17.2523 3.59732L17.2519 3.59696L17.2515 3.5966L17.2512 3.59623L17.2508 3.59586L17.2504 3.59549L17.2501 3.59511L17.2497 3.59474L17.2493 3.59436L17.2489 3.59398L17.2485 3.5936L17.2482 3.59321L17.2478 3.59283L17.2474 3.59244L17.247 3.59205L17.2466 3.59165L17.2462 3.59126L17.2458 3.59086L17.2454 3.59046L17.245 3.59006L17.2446 3.58966L17.2442 3.58925L17.2438 3.58884L17.2434 3.58844L17.243 3.58802L17.2426 3.58761L17.2421 3.5872L17.2417 3.58678L17.2413 3.58636L17.2409 3.58594L17.2405 3.58551L17.24 3.58509L17.2396 3.58466L17.2392 3.58423L17.2387 3.5838L17.2383 3.58337L17.2379 3.58294L17.2374 3.5825L17.237 3.58206L17.2366 3.58162L17.2361 3.58118L17.2357 3.58074L17.2352 3.58029L17.2348 3.57985L17.2343 3.5794L17.2339 3.57895L17.2334 3.5785L17.233 3.57804L17.2325 3.57759L17.2321 3.57713L17.2316 3.57667L17.2312 3.57621L17.2307 3.57575L17.2302 3.57529L17.2298 3.57482L17.2293 3.57436L17.2288 3.57389L17.2284 3.57342L17.2279 3.57295L17.2274 3.57247L17.2269 3.572L17.2265 3.57152L17.226 3.57105L17.2255 3.57057L17.225 3.57009L17.2246 3.5696L17.2241 3.56912L17.2236 3.56864L17.2231 3.56815L17.2226 3.56766L17.2221 3.56717L17.2216 3.56668L17.2211 3.56619L17.2206 3.5657L17.2202 3.5652L17.2197 3.56471L17.2192 3.56421L17.2187 3.56371L17.2182 3.56321L17.2177 3.56271L17.2172 3.56221L17.2167 3.56171L17.2161 3.5612L17.2156 3.5607L17.2151 3.56019L17.2146 3.55968L17.2141 3.55917L17.2136 3.55866L17.2131 3.55815L17.2126 3.55764L17.2121 3.55712L17.2116 3.55661L17.211 3.55609L17.2105 3.55557L17.21 3.55505L17.2095 3.55453L17.209 3.55401L17.2084 3.55349L17.2079 3.55297L17.2074 3.55245L17.2069 3.55192L17.2063 3.55139L17.2058 3.55087L17.2053 3.55034L17.2048 3.54981L17.2042 3.54928L17.2037 3.54875L17.2032 3.54822L17.2026 3.54769L17.2021 3.54715L17.2016 3.54662L17.201 3.54608L17.2005 3.54555L17.2 3.54501L17.1994 3.54447L17.1989 3.54394L17.1983 3.5434L17.1978 3.54286L17.1973 3.54232L17.1967 3.54177L17.1962 3.54123L17.1956 3.54069L17.1951 3.54014L17.1945 3.5396L17.194 3.53905L17.1935 3.53851L17.1929 3.53796L17.1924 3.53741L17.1918 3.53687L17.1913 3.53632L17.1907 3.53577L17.1902 3.53522L17.1896 3.53467L17.1891 3.53412L17.1885 3.53357L17.188 3.53301L17.1874 3.53246L17.1869 3.53191L17.1863 3.53135L17.1857 3.5308L17.1852 3.53025L17.1846 3.52969L17.1841 3.52913L17.1835 3.52858L17.183 3.52802L17.1824 3.52746L17.1819 3.52691L17.1813 3.52635L17.1807 3.52579L17.1802 3.52523L17.1796 3.52467L17.1791 3.52411L17.1785 3.52355L17.1779 3.52299L17.1774 3.52243L17.1768 3.52187L17.1763 3.52131L17.1757 3.52075L17.1751 3.52019L17.1746 3.51963L17.174 3.51907L17.1734 3.5185L17.1729 3.51794L17.1723 3.51738L17.1718 3.51682L17.1712 3.51625L17.1706 3.51569L17.1701 3.51513L17.1695 3.51456L17.1689 3.514L17.1684 3.51343L17.1678 3.51287L17.1673 3.51231L17.1667 3.51174L17.1661 3.51118L17.1656 3.51062L17.165 3.51005L17.1644 3.50949L17.1639 3.50892L17.1633 3.50836L17.1627 3.50779L17.1622 3.50723L17.1616 3.50667L17.161 3.5061L17.1605 3.50554L17.1599 3.50498L17.1594 3.50441L17.1588 3.50385L17.1582 3.50328L17.1577 3.50272L17.1571 3.50216L17.1565 3.50159L17.156 3.50103L17.1554 3.50047L17.1549 3.49991L17.1543 3.49934L17.1537 3.49878L17.1532 3.49822L17.1526 3.49766L17.152 3.4971L17.1515 3.49654L17.1509 3.49598L17.1504 3.49542L17.1498 3.49485L17.1492 3.4943L17.1487 3.49374L17.1481 3.49318L17.1476 3.49262L17.147 3.49206L17.1464 3.4915L17.1459 3.49094L17.1453 3.49039L17.1448 3.48983L17.1442 3.48927L17.1437 3.48872L17.1431 3.48816L17.1426 3.48761L17.142 3.48705L17.1414 3.4865L17.1409 3.48595L17.1403 3.48539L17.1398 3.48484L17.1392 3.48429L17.1387 3.48374L17.1381 3.48319L17.1376 3.48264L17.137 3.48209L17.1365 3.48154L17.1359 3.48099L17.1354 3.48044L17.1348 3.4799L17.1343 3.47935L17.1338 3.4788L17.1332 3.47826L17.1327 3.47772L17.1321 3.47717L17.1316 3.47663L17.131 3.47609L17.1305 3.47555L17.13 3.47501L17.1294 3.47447L17.1289 3.47393L17.1283 3.47339L17.1278 3.47285L17.1273 3.47232L17.1267 3.47178L17.1262 3.47125L17.1257 3.47071L17.1251 3.47018L17.1246 3.46965L17.1241 3.46912L17.1235 3.46859L17.123 3.46806L17.1225 3.46753L17.1219 3.467L17.1214 3.46648L17.1209 3.46595L17.1204 3.46543L17.1199 3.4649L17.1193 3.46438L17.1188 3.46386L17.1183 3.46334L17.1178 3.46282L17.1173 3.4623L17.1167 3.46179L17.1162 3.46127L17.1157 3.46076L17.1152 3.46024L17.1147 3.45973L17.1142 3.45922L17.1137 3.45871L17.1131 3.4582L17.1126 3.45769L17.1121 3.45719L17.1116 3.45668L17.1111 3.45618L17.1106 3.45568L17.1101 3.45518L17.1096 3.45468L17.1091 3.45418L17.1086 3.45368L17.1081 3.45318L17.1076 3.45269L17.1071 3.45219L17.1066 3.4517L17.1062 3.45121L17.1057 3.45072L17.1052 3.45023L17.1047 3.44975L17.1042 3.44926L17.1037 3.44878L17.1032 3.4483L17.1028 3.44782L17.1023 3.44734L17.1018 3.44686L17.1013 3.44638L17.1009 3.44591L17.1004 3.44543L17.0999 3.44496L17.0994 3.44449L17.099 3.44402L17.0985 3.44356L17.098 3.44309L17.0976 3.44263L17.0971 3.44216L17.0967 3.4417L17.0962 3.44124L17.0957 3.44079L17.0953 3.44033L17.0948 3.43988L17.0944 3.43943L17.0939 3.43897L17.0935 3.43853L17.093 3.43808L17.0926 3.43763L17.0921 3.43719L17.0917 3.43675L17.0913 3.43631L17.0908 3.43587L17.0904 3.43543L17.0899 3.435L17.0895 3.43456L17.0891 3.43413L17.0886 3.4337L17.0882 3.43328L17.0878 3.43285L17.0874 3.43243L17.087 3.43201L17.0865 3.43159L17.0861 3.43117L17.0857 3.43075L17.0853 3.43034L17.0849 3.42993L17.0845 3.42952L17.0841 3.42911L17.0836 3.4287L17.0832 3.4283L17.0828 3.4279L17.0824 3.4275L17.082 3.4271L17.0816 3.4267L17.0813 3.42631L17.0809 3.42592L17.0805 3.42553L17.0801 3.42514L17.0797 3.42475L17.0793 3.42437L17.0789 3.42399L17.0786 3.42361L17.0782 3.42324L17.0778 3.42286L17.0774 3.42249L17.0771 3.42212L17.0767 3.42175L17.0763 3.42139L17.076 3.42102L17.0756 3.42066L17.0752 3.4203L17.0749 3.41995L17.0745 3.41959L17.0742 3.41924L17.0738 3.41889L17.0735 3.41855L17.0731 3.4182L17.0728 3.41786L17.0725 3.41752L17.0721 3.41718L17.0718 3.41685L17.0715 3.41651L17.0711 3.41618L17.0708 3.41586L17.0705 3.41553L17.0702 3.41521L17.0698 3.41489L17.0695 3.41457L17.0692 3.41426L17.0689 3.41394L17.0686 3.41363L17.0683 3.41333L17.068 3.41302L17.0677 3.41272L17.0674 3.41242L17.0671 3.41212L17.0668 3.41183L17.0665 3.41154L17.0662 3.41125L17.0659 3.41096L17.0656 3.41068L17.0653 3.4104L17.0651 3.41012L17.0648 3.40984L17.0645 3.40957L17.0642 3.4093L17.064 3.40903L17.0637 3.40877L17.0635 3.4085L17.0632 3.40825L17.0629 3.40799L17.0627 3.40774L17.0624 3.40748L17.0622 3.40724L17.0619 3.40699L17.0617 3.40675L17.0615 3.40651L17.0612 3.40627L17.061 3.40604L17.0608 3.40581L17.0605 3.40558L17.0603 3.40536L17.0601 3.40514L17.0599 3.40492L17.0596 3.4047L17.0594 3.40449L17.0592 3.40428L17.059 3.40407L17.0588 3.40387L17.0586 3.40367L17.0584 3.40347L17.0582 3.40328L17.058 3.40309L17.0578 3.4029L17.0577 3.40271L17.0575 3.40253L17.0573 3.40235L17.0571 3.40218L17.0569 3.402L17.0568 3.40183L17.0566 3.40167L17.0565 3.40151L17.0563 3.40135L17.0561 3.40119L17.056 3.40104L17.0558 3.40089L17.0557 3.40074L17.0555 3.4006L17.0554 3.40046L17.0553 3.40032L17.0551 3.40019L17.055 3.40005L17.0499 3.39495L17.0446 3.39005C16.393 2.78859 15.4269 2.19881 14.5755 1.91922C14.509 1.89631 14.4419 1.87294 14.3741 1.84934C13.5037 1.54647 12.5212 1.2046 11.5042 1.26007L10.6968 1.30411L11.2686 1.87594L11.756 2.36331C12.1938 2.8011 12.6322 3.23578 13.0701 3.66982C13.9429 4.53512 14.8132 5.39785 15.6703 6.27754C16.874 7.53015 17.5378 9.2053 17.5187 10.9425C17.4997 12.68 16.7991 14.3406 15.5677 15.5667Z" fill="white" stroke="white" stroke-width="0.722166"/>
</g>
<defs>
<clipPath id="clip0_113_235">
<rect width="110" height="24" fill="white"/>
</clipPath>
</defs>
</svg>
